<svg width="24" height="24" viewBox="0 0 24 24" fill="none" xmlns="http://www.w3.org/2000/svg">
<g clip-path="url(#clip0_27_79)">
<path d="M0 12.2985C0 5.99985 5.20699 0.930176 11.6763 0.930176C14.2797 0.930176 16.7255 1.77512 18.7767 3.31138L16.0944 6.76798C14.832 5.84622 13.333 5.30852 11.6763 5.30852C7.6527 5.30852 4.41806 8.45787 4.41806 12.3753C4.41806 16.2928 7.6527 19.4421 11.6763 19.4421C14.9109 19.4421 17.5934 17.3682 18.54 14.5261H11.6763V10.1478H23.3526V12.2985C23.3526 18.5972 18.1456 23.6669 11.6763 23.6669C5.20699 23.6669 0 18.5204 0 12.2985Z" fill="#B5B5B5"/>
</g>
<defs>
<clipPath id="clip0_27_79">
<rect width="24" height="24" fill="white"/>
</clipPath>
</defs>
</svg>
