<svg width="54" height="25" viewBox="0 0 54 25" fill="none" xmlns="http://www.w3.org/2000/svg">
<path d="M19.7344 0.71875V24H15.4844L5.375 9.35938H5.17188V24H0.265625V0.71875H4.57812L14.625 15.3594H14.8281V0.71875H19.7344Z" fill="white"/>
<path d="M28.1719 24.3281C26.2969 24.3281 24.6615 24.0417 23.2656 23.4688C21.8802 22.8958 20.7969 22.0417 20.0156 20.9062C19.2448 19.7708 18.8385 18.3646 18.7969 16.6875H23.5469C23.6094 17.4583 23.8385 18.1094 24.2344 18.6406C24.6302 19.1615 25.1615 19.5521 25.8281 19.8125C26.4948 20.0729 27.2604 20.2031 28.125 20.2031C28.9583 20.2031 29.6823 20.0833 30.2969 19.8438C30.9219 19.6042 31.401 19.2708 31.7344 18.8438C32.0781 18.4062 32.25 17.901 32.25 17.3281C32.25 16.8073 32.0938 16.3698 31.7812 16.0156C31.4792 15.6615 31.0312 15.3594 30.4375 15.1094C29.8542 14.8594 29.1406 14.6354 28.2969 14.4375L25.75 13.8125C23.7917 13.3438 22.2448 12.599 21.1094 11.5781C19.974 10.5469 19.4062 9.17188 19.4062 7.45312C19.4062 6.04688 19.7865 4.81771 20.5469 3.76562C21.3177 2.70312 22.3646 1.88021 23.6875 1.29688C25.0208 0.703125 26.5365 0.40625 28.2344 0.40625C29.9635 0.40625 31.4688 0.703125 32.75 1.29688C34.0417 1.89062 35.0469 2.71354 35.7656 3.76562C36.4948 4.81771 36.8698 6.03125 36.8906 7.40625H32.1562C32.0729 6.5 31.6823 5.79167 30.9844 5.28125C30.2969 4.77083 29.3646 4.51562 28.1875 4.51562C27.3958 4.51562 26.7188 4.63021 26.1562 4.85938C25.6042 5.07812 25.1823 5.38542 24.8906 5.78125C24.599 6.17708 24.4531 6.63021 24.4531 7.14062C24.4531 7.68229 24.6198 8.14062 24.9531 8.51562C25.2865 8.88021 25.7292 9.18229 26.2812 9.42188C26.8438 9.65104 27.4583 9.84375 28.125 10L30.2031 10.5156C31.2135 10.7448 32.1458 11.0521 33 11.4375C33.8542 11.8125 34.5938 12.276 35.2188 12.8281C35.8542 13.3802 36.3438 14.0312 36.6875 14.7812C37.0312 15.5208 37.2031 16.375 37.2031 17.3438C37.2031 18.7708 36.8438 20.0104 36.125 21.0625C35.4167 22.1042 34.3906 22.9115 33.0469 23.4844C31.7031 24.0469 30.0781 24.3281 28.1719 24.3281Z" fill="white"/>
<path d="M36.1562 24V0.71875H45.3281C47.0885 0.71875 48.5885 1.05729 49.8281 1.73438C51.0781 2.40104 52.0312 3.32812 52.6875 4.51562C53.3542 5.70312 53.6875 7.07292 53.6875 8.625C53.6875 10.1667 53.3542 11.526 52.6875 12.7031C52.0208 13.8802 51.0521 14.8021 49.7812 15.4688C48.5208 16.125 46.9948 16.4531 45.2031 16.4531H39.3594V12.5156H44.4062C45.3542 12.5156 46.1354 12.349 46.75 12.0156C47.375 11.6823 47.8385 11.224 48.1406 10.6406C48.4531 10.0573 48.6094 9.38542 48.6094 8.625C48.6094 7.84375 48.4531 7.16667 48.1406 6.59375C47.8385 6.01042 47.375 5.55729 46.75 5.23438C46.125 4.91146 45.3385 4.75 44.3906 4.75H41.0625V24H36.1562Z" fill="white"/>
</svg>
