<svg width="80" height="50" viewBox="0 0 80 50" fill="none" xmlns="http://www.w3.org/2000/svg">
<rect width="80" height="50" rx="25" fill="white"/>
<path d="M32.7344 13.7188V37H28.4844L18.375 22.3594H18.1719V37H13.2656V13.7188H17.5781L27.625 28.3594H27.8281V13.7188H32.7344Z" fill="black"/>
<path d="M41.1719 37.3281C39.2969 37.3281 37.6615 37.0417 36.2656 36.4688C34.8802 35.8958 33.7969 35.0417 33.0156 33.9062C32.2448 32.7708 31.8385 31.3646 31.7969 29.6875H36.5469C36.6094 30.4583 36.8385 31.1094 37.2344 31.6406C37.6302 32.1615 38.1615 32.5521 38.8281 32.8125C39.4948 33.0729 40.2604 33.2031 41.125 33.2031C41.9583 33.2031 42.6823 33.0833 43.2969 32.8438C43.9219 32.6042 44.401 32.2708 44.7344 31.8438C45.0781 31.4062 45.25 30.901 45.25 30.3281C45.25 29.8073 45.0938 29.3698 44.7812 29.0156C44.4792 28.6615 44.0312 28.3594 43.4375 28.1094C42.8542 27.8594 42.1406 27.6354 41.2969 27.4375L38.75 26.8125C36.7917 26.3438 35.2448 25.599 34.1094 24.5781C32.974 23.5469 32.4062 22.1719 32.4062 20.4531C32.4062 19.0469 32.7865 17.8177 33.5469 16.7656C34.3177 15.7031 35.3646 14.8802 36.6875 14.2969C38.0208 13.7031 39.5365 13.4062 41.2344 13.4062C42.9635 13.4062 44.4688 13.7031 45.75 14.2969C47.0417 14.8906 48.0469 15.7135 48.7656 16.7656C49.4948 17.8177 49.8698 19.0312 49.8906 20.4062H45.1562C45.0729 19.5 44.6823 18.7917 43.9844 18.2812C43.2969 17.7708 42.3646 17.5156 41.1875 17.5156C40.3958 17.5156 39.7188 17.6302 39.1562 17.8594C38.6042 18.0781 38.1823 18.3854 37.8906 18.7812C37.599 19.1771 37.4531 19.6302 37.4531 20.1406C37.4531 20.6823 37.6198 21.1406 37.9531 21.5156C38.2865 21.8802 38.7292 22.1823 39.2812 22.4219C39.8438 22.651 40.4583 22.8438 41.125 23L43.2031 23.5156C44.2135 23.7448 45.1458 24.0521 46 24.4375C46.8542 24.8125 47.5938 25.276 48.2188 25.8281C48.8542 26.3802 49.3438 27.0312 49.6875 27.7812C50.0312 28.5208 50.2031 29.375 50.2031 30.3438C50.2031 31.7708 49.8438 33.0104 49.125 34.0625C48.4167 35.1042 47.3906 35.9115 46.0469 36.4844C44.7031 37.0469 43.0781 37.3281 41.1719 37.3281Z" fill="black"/>
<path d="M49.1562 37V13.7188H58.3281C60.0885 13.7188 61.5885 14.0573 62.8281 14.7344C64.0781 15.401 65.0312 16.3281 65.6875 17.5156C66.3542 18.7031 66.6875 20.0729 66.6875 21.625C66.6875 23.1667 66.3542 24.526 65.6875 25.7031C65.0208 26.8802 64.0521 27.8021 62.7812 28.4688C61.5208 29.125 59.9948 29.4531 58.2031 29.4531H52.3594V25.5156H57.4062C58.3542 25.5156 59.1354 25.349 59.75 25.0156C60.375 24.6823 60.8385 24.224 61.1406 23.6406C61.4531 23.0573 61.6094 22.3854 61.6094 21.625C61.6094 20.8438 61.4531 20.1667 61.1406 19.5938C60.8385 19.0104 60.375 18.5573 59.75 18.2344C59.125 17.9115 58.3385 17.75 57.3906 17.75H54.0625V37H49.1562Z" fill="black"/>
</svg>
