<svg width="220" height="50" viewBox="0 0 220 50" fill="none" xmlns="http://www.w3.org/2000/svg">
<rect width="220" height="50" rx="25" fill="black"/>
<path d="M43.7344 13.6884V36.9697H39.4844L29.375 22.3291H29.1719V36.9697H24.2656V13.6884H28.5781L38.625 28.3291H38.8281V13.6884H43.7344Z" fill="white"/>
<path d="M54.1719 37.2978C52.2969 37.2978 50.6615 37.0114 49.2656 36.4384C47.8802 35.8655 46.7969 35.0114 46.0156 33.8759C45.2448 32.7405 44.8385 31.3343 44.7969 29.6572H49.5469C49.6094 30.428 49.8385 31.0791 50.2344 31.6103C50.6302 32.1312 51.1615 32.5218 51.8281 32.7822C52.4948 33.0426 53.2604 33.1728 54.125 33.1728C54.9583 33.1728 55.6823 33.053 56.2969 32.8134C56.9219 32.5739 57.401 32.2405 57.7344 31.8134C58.0781 31.3759 58.25 30.8707 58.25 30.2978C58.25 29.777 58.0938 29.3395 57.7812 28.9853C57.4792 28.6312 57.0312 28.3291 56.4375 28.0791C55.8542 27.8291 55.1406 27.6051 54.2969 27.4072L51.75 26.7822C49.7917 26.3134 48.2448 25.5687 47.1094 24.5478C45.974 23.5166 45.4062 22.1416 45.4062 20.4228C45.4062 19.0166 45.7865 17.7874 46.5469 16.7353C47.3177 15.6728 48.3646 14.8499 49.6875 14.2666C51.0208 13.6728 52.5365 13.3759 54.2344 13.3759C55.9635 13.3759 57.4688 13.6728 58.75 14.2666C60.0417 14.8603 61.0469 15.6832 61.7656 16.7353C62.4948 17.7874 62.8698 19.0009 62.8906 20.3759H58.1562C58.0729 19.4697 57.6823 18.7614 56.9844 18.2509C56.2969 17.7405 55.3646 17.4853 54.1875 17.4853C53.3958 17.4853 52.7188 17.5999 52.1562 17.8291C51.6042 18.0478 51.1823 18.3551 50.8906 18.7509C50.599 19.1468 50.4531 19.5999 50.4531 20.1103C50.4531 20.652 50.6198 21.1103 50.9531 21.4853C51.2865 21.8499 51.7292 22.152 52.2812 22.3916C52.8438 22.6207 53.4583 22.8134 54.125 22.9697L56.2031 23.4853C57.2135 23.7145 58.1458 24.0218 59 24.4072C59.8542 24.7822 60.5938 25.2457 61.2188 25.7978C61.8542 26.3499 62.3438 27.0009 62.6875 27.7509C63.0312 28.4905 63.2031 29.3447 63.2031 30.3134C63.2031 31.7405 62.8438 32.9801 62.125 34.0322C61.4167 35.0739 60.3906 35.8812 59.0469 36.4541C57.7031 37.0166 56.0781 37.2978 54.1719 37.2978Z" fill="white"/>
<path d="M64.1562 36.9697V13.6884H73.3281C75.0885 13.6884 76.5885 14.027 77.8281 14.7041C79.0781 15.3707 80.0312 16.2978 80.6875 17.4853C81.3542 18.6728 81.6875 20.0426 81.6875 21.5947C81.6875 23.1364 81.3542 24.4957 80.6875 25.6728C80.0208 26.8499 79.0521 27.7718 77.7812 28.4384C76.5208 29.0947 74.9948 29.4228 73.2031 29.4228H67.3594V25.4853H72.4062C73.3542 25.4853 74.1354 25.3187 74.75 24.9853C75.375 24.652 75.8385 24.1937 76.1406 23.6103C76.4531 23.027 76.6094 22.3551 76.6094 21.5947C76.6094 20.8134 76.4531 20.1364 76.1406 19.5634C75.8385 18.9801 75.375 18.527 74.75 18.2041C74.125 17.8812 73.3385 17.7197 72.3906 17.7197H69.0625V36.9697H64.1562Z" fill="white"/>
<path d="M100.255 37.3281C98.38 37.3281 96.7446 37.0417 95.3488 36.4688C93.9633 35.8958 92.88 35.0417 92.0988 33.9062C91.3279 32.7708 90.9217 31.3646 90.88 29.6875H95.63C95.6925 30.4583 95.9217 31.1094 96.3175 31.6406C96.7133 32.1615 97.2446 32.5521 97.9113 32.8125C98.5779 33.0729 99.3435 33.2031 100.208 33.2031C101.041 33.2031 101.765 33.0833 102.38 32.8438C103.005 32.6042 103.484 32.2708 103.818 31.8438C104.161 31.4062 104.333 30.901 104.333 30.3281C104.333 29.8073 104.177 29.3698 103.864 29.0156C103.562 28.6615 103.114 28.3594 102.521 28.1094C101.937 27.8594 101.224 27.6354 100.38 27.4375L97.8331 26.8125C95.8748 26.3438 94.3279 25.599 93.1925 24.5781C92.0571 23.5469 91.4894 22.1719 91.4894 20.4531C91.4894 19.0469 91.8696 17.8177 92.63 16.7656C93.4008 15.7031 94.4477 14.8802 95.7706 14.2969C97.104 13.7031 98.6196 13.4062 100.318 13.4062C102.047 13.4062 103.552 13.7031 104.833 14.2969C106.125 14.8906 107.13 15.7135 107.849 16.7656C108.578 17.8177 108.953 19.0312 108.974 20.4062H104.239C104.156 19.5 103.765 18.7917 103.068 18.2812C102.38 17.7708 101.448 17.5156 100.271 17.5156C99.479 17.5156 98.8019 17.6302 98.2394 17.8594C97.6873 18.0781 97.2654 18.3854 96.9738 18.7812C96.6821 19.1771 96.5363 19.6302 96.5363 20.1406C96.5363 20.6823 96.7029 21.1406 97.0363 21.5156C97.3696 21.8802 97.8123 22.1823 98.3644 22.4219C98.9269 22.651 99.5415 22.8438 100.208 23L102.286 23.5156C103.297 23.7448 104.229 24.0521 105.083 24.4375C105.937 24.8125 106.677 25.276 107.302 25.8281C107.937 26.3802 108.427 27.0312 108.771 27.7812C109.114 28.5208 109.286 29.375 109.286 30.3438C109.286 31.7708 108.927 33.0104 108.208 34.0625C107.5 35.1042 106.474 35.9115 105.13 36.4844C103.786 37.0469 102.161 37.3281 100.255 37.3281ZM119.764 19.5312V23.1875H109.248V19.5312H119.764ZM111.639 15.375H116.467V31.625C116.467 32.2083 116.597 32.6406 116.858 32.9219C117.118 33.1927 117.535 33.3281 118.108 33.3281C118.295 33.3281 118.503 33.3125 118.733 33.2812C118.962 33.25 119.16 33.2135 119.326 33.1719L120.092 36.7969C119.561 36.9531 119.045 37.0677 118.545 37.1406C118.055 37.2135 117.571 37.25 117.092 37.25C115.352 37.25 114.009 36.8177 113.061 35.9531C112.113 35.0781 111.639 33.849 111.639 32.2656V15.375ZM132.101 29.5781V19.5312H136.929V37H132.288V33.8281H132.101C131.705 34.8385 131.054 35.6615 130.148 36.2969C129.241 36.9219 128.132 37.2292 126.819 37.2188C125.653 37.2188 124.621 36.9583 123.726 36.4375C122.84 35.9062 122.148 35.151 121.648 34.1719C121.158 33.1927 120.913 32.0208 120.913 30.6562V19.5312H125.741V29.8125C125.741 30.8333 126.017 31.6458 126.569 32.25C127.121 32.8438 127.856 33.1354 128.773 33.125C129.356 33.125 129.898 32.9948 130.398 32.7344C130.898 32.4635 131.304 32.0625 131.616 31.5312C131.939 31 132.101 30.349 132.101 29.5781ZM145.203 37.2812C143.87 37.2812 142.667 36.9375 141.594 36.25C140.521 35.5625 139.672 34.5521 139.047 33.2188C138.422 31.875 138.109 30.2344 138.109 28.2969C138.109 26.2969 138.432 24.6302 139.078 23.2969C139.724 21.9635 140.583 20.9688 141.656 20.3125C142.729 19.6458 143.901 19.3125 145.172 19.3125C146.151 19.3125 146.969 19.4792 147.625 19.8125C148.281 20.1354 148.812 20.5417 149.219 21.0312C149.625 21.5208 149.932 22.0052 150.141 22.4844H150.281V13.7188H155.125V37H150.359V34.2031H150.141C149.922 34.6823 149.604 35.1615 149.188 35.6406C148.771 36.1094 148.234 36.5 147.578 36.8125C146.932 37.125 146.141 37.2812 145.203 37.2812ZM146.719 33.4375C147.5 33.4375 148.161 33.224 148.703 32.7969C149.255 32.3594 149.672 31.7552 149.953 30.9844C150.245 30.2135 150.391 29.3125 150.391 28.2812C150.391 27.2396 150.25 26.3385 149.969 25.5781C149.688 24.8073 149.271 24.2135 148.719 23.7969C148.167 23.3698 147.5 23.1562 146.719 23.1562C145.927 23.1562 145.26 23.375 144.719 23.8125C144.177 24.25 143.766 24.8542 143.484 25.625C143.203 26.3854 143.062 27.2708 143.062 28.2812C143.062 29.2917 143.203 30.1875 143.484 30.9688C143.766 31.7396 144.177 32.3438 144.719 32.7812C145.271 33.2188 145.938 33.4375 146.719 33.4375ZM156.993 37V19.5312H161.821V37H156.993ZM159.399 17.2969C158.681 17.2969 158.066 17.0573 157.556 16.5781C157.045 16.099 156.79 15.5208 156.79 14.8438C156.79 14.1667 157.045 13.5938 157.556 13.125C158.066 12.6458 158.681 12.4062 159.399 12.4062C160.129 12.4062 160.748 12.6458 161.259 13.125C161.769 13.5938 162.024 14.1667 162.024 14.8438C162.024 15.5208 161.769 16.099 161.259 16.5781C160.748 17.0573 160.129 17.2969 159.399 17.2969ZM171.58 37.3438C169.82 37.3438 168.294 36.9688 167.002 36.2188C165.721 35.4583 164.731 34.4062 164.033 33.0625C163.346 31.7083 163.002 30.1354 163.002 28.3438C163.002 26.5312 163.346 24.9531 164.033 23.6094C164.731 22.2552 165.721 21.2031 167.002 20.4531C168.294 19.6927 169.82 19.3125 171.58 19.3125C173.351 19.3125 174.877 19.6927 176.158 20.4531C177.45 21.2031 178.439 22.2552 179.127 23.6094C179.825 24.9531 180.174 26.5312 180.174 28.3438C180.174 30.1354 179.825 31.7083 179.127 33.0625C178.439 34.4062 177.45 35.4583 176.158 36.2188C174.877 36.9688 173.351 37.3438 171.58 37.3438ZM171.611 33.5625C172.413 33.5625 173.085 33.3385 173.627 32.8906C174.169 32.4323 174.575 31.8073 174.846 31.0156C175.127 30.224 175.268 29.3229 175.268 28.3125C175.268 27.2917 175.127 26.3906 174.846 25.6094C174.575 24.8281 174.169 24.2135 173.627 23.7656C173.085 23.3177 172.413 23.0938 171.611 23.0938C170.799 23.0938 170.116 23.3177 169.564 23.7656C169.023 24.2135 168.611 24.8281 168.33 25.6094C168.059 26.3906 167.924 27.2917 167.924 28.3125C167.924 29.3229 168.059 30.224 168.33 31.0156C168.611 31.8073 169.023 32.4323 169.564 32.8906C170.116 33.3385 170.799 33.5625 171.611 33.5625ZM195.854 24.5156L191.432 24.7812C191.318 24.2292 191.011 23.7552 190.511 23.3594C190.011 22.9531 189.339 22.75 188.495 22.75C187.745 22.75 187.115 22.9062 186.604 23.2188C186.104 23.5312 185.854 23.9479 185.854 24.4688C185.854 24.8854 186.016 25.2448 186.339 25.5469C186.672 25.8385 187.24 26.0677 188.042 26.2344L191.214 26.8594C192.912 27.2031 194.177 27.7604 195.011 28.5312C195.844 29.3021 196.261 30.3177 196.261 31.5781C196.261 32.7344 195.927 33.7448 195.261 34.6094C194.594 35.4635 193.677 36.1354 192.511 36.625C191.344 37.1042 190.005 37.3438 188.495 37.3438C186.182 37.3438 184.339 36.8594 182.964 35.8906C181.599 34.9219 180.802 33.6094 180.573 31.9531L185.307 31.7031C185.464 32.4115 185.818 32.9479 186.37 33.3125C186.922 33.6771 187.63 33.8594 188.495 33.8594C189.339 33.8594 190.021 33.6927 190.542 33.3594C191.073 33.026 191.339 32.6042 191.339 32.0938C191.339 31.2292 190.589 30.6458 189.089 30.3438L186.073 29.7188C184.375 29.375 183.11 28.7865 182.276 27.9531C181.443 27.1198 181.026 26.0521 181.026 24.75C181.026 23.625 181.334 22.6562 181.948 21.8438C182.563 21.0312 183.422 20.4062 184.526 19.9688C185.641 19.5312 186.943 19.3125 188.432 19.3125C190.641 19.3125 192.375 19.7812 193.636 20.7188C194.906 21.6458 195.646 22.9115 195.854 24.5156Z" fill="white"/>
</svg>
