<svg width="58" height="58" viewBox="0 0 58 58" fill="none" xmlns="http://www.w3.org/2000/svg">
<path d="M53.2561 1H5.53594C3.78851 1 2.3623 2.42621 2.3623 4.17364V33.1347H56.4362V4.17364C56.4362 2.41978 55.0164 1 53.2625 1H53.2561ZM21.417 5.98531C20.3826 5.98531 19.5475 5.14372 19.5475 4.10939C19.5475 3.07507 20.3826 2.23348 21.417 2.23348C22.4513 2.23348 23.2929 3.07507 23.2929 4.10939C23.2929 5.14372 22.4513 5.98531 21.417 5.98531ZM37.298 5.98531C36.2637 5.98531 35.4285 5.14372 35.4285 4.10939C35.4285 3.07507 36.2637 2.23348 37.298 2.23348C38.3323 2.23348 39.1739 3.07507 39.1739 4.10939C39.1739 5.14372 38.3323 5.98531 37.298 5.98531Z" fill="#F4F4F4" stroke="#58595B" stroke-width="0.321218" stroke-miterlimit="10"/>
<path d="M56.4358 28.5411H2.36189L1.45605 54.4634C1.45605 56.2173 2.87584 57.637 4.62969 57.637H54.168C55.9218 57.637 57.3416 56.2173 57.3416 54.4634L56.4358 28.5347V28.5411Z" fill="#F4F4F4" stroke="#58595B" stroke-width="0.321218" stroke-miterlimit="10"/>
<path d="M23.1381 26.4595L25.1875 33.1344H23.2666V32.3956C23.2666 31.7596 23.2537 31.0465 23.2152 30.2627C23.1831 29.4725 23.1445 28.7273 23.106 28.027C23.0674 27.3268 23.0417 26.8064 23.0225 26.4595H23.1381Z" fill="#A8A8A8"/>
<path d="M36.0124 26.4854H36.128C36.1088 26.8323 36.0831 27.3527 36.051 28.0401C36.0124 28.7275 35.9867 29.4535 35.9674 30.218C35.9417 30.9825 35.9353 31.657 35.9353 32.2417V33.1282H33.8281L36.0124 26.479V26.4854Z" fill="#A8A8A8"/>
<path d="M57.7978 10.7717L56.4358 33.1413H39.6104V33.0578H19.7463V33.1413H2.36197L1 10.7717C1 9.06923 2.42621 7.68799 4.17364 7.68799H54.6177C56.3716 7.68799 57.7914 9.06923 57.7914 10.7717H57.7978Z" fill="#DBDBDB" stroke="#58595B" stroke-width="0.321218" stroke-miterlimit="10"/>
<path d="M17.1055 33.1025V41.4414C17.1055 42.3857 17.87 43.1502 18.8143 43.1502H19.8679C20.8123 43.1502 21.5768 42.3857 21.5768 41.4414V33.1025H17.1055ZM37.6891 33.1025V41.4414C37.6891 42.3857 38.4536 43.1502 39.398 43.1502H40.6443C41.5887 43.1502 42.3532 42.3857 42.3532 41.4414V33.1025H37.6891ZM29.6073 37.5932H29.5173L28.1297 33.1025H24.0245L26.742 41.9425C26.9604 42.662 27.6286 43.1502 28.3738 43.1502H30.4681C31.2069 43.1502 31.8622 42.6748 32.0935 41.9746L35.0166 33.1025H31.0849L29.6137 37.5932H29.6073Z" fill="#BF0000"/>
<path d="M42.3535 21.2431V33.1089H37.6894V31.9782C37.6894 31.2329 37.7022 30.3721 37.7279 29.402C37.7536 28.4319 37.7857 27.5068 37.8307 26.6331C37.8692 25.7594 37.9078 25.0977 37.9271 24.6544H37.7857L35.004 33.1089H31.0723L35.1453 20.7098C35.3766 20.0096 36.0319 19.5342 36.7707 19.5342H40.6446C41.589 19.5342 42.3535 20.2987 42.3535 21.2431Z" fill="#800000"/>
<path d="M21.4157 24.6159H21.2743C21.3 25.0591 21.3321 25.7208 21.3771 26.6138C21.4285 27.5004 21.4735 28.4512 21.5184 29.4534C21.5634 30.4492 21.5827 31.355 21.5827 32.1645V33.1024H17.1113V21.2431C17.1113 20.2987 17.8758 19.5342 18.8202 19.5342H22.6684C23.4201 19.5342 24.0818 20.0224 24.3002 20.742L28.1291 33.1089H24.0239L21.4221 24.6223L21.4157 24.6159Z" fill="#800000"/>
<path d="M10.7263 30.6611H10.7199C10.0812 30.6611 9.56348 31.1789 9.56348 31.8175V34.6057C9.56348 35.2443 10.0812 35.7621 10.7199 35.7621H10.7263C11.3649 35.7621 11.8827 35.2443 11.8827 34.6057V31.8175C11.8827 31.1789 11.3649 30.6611 10.7263 30.6611Z" fill="#B2B2B2"/>
<path d="M48.0329 30.5073H48.0265C47.3878 30.5073 46.8701 31.0251 46.8701 31.6637V34.4519C46.8701 35.0905 47.3878 35.6083 48.0265 35.6083H48.0329C48.6716 35.6083 49.1893 35.0905 49.1893 34.4519V31.6637C49.1893 31.0251 48.6716 30.5073 48.0329 30.5073Z" fill="#B2B2B2"/>
</svg>
