<svg width="512" height="307" viewBox="0 0 512 307" fill="none" xmlns="http://www.w3.org/2000/svg">
<rect width="512" height="307" fill="url(#paint0_linear_1_2)"/>
<circle cx="303" cy="160" r="67" fill="url(#paint1_linear_1_2)"/>
<circle cx="362" cy="160" r="67" fill="url(#paint2_linear_1_2)"/>
<circle cx="421" cy="160" r="67" fill="url(#paint3_linear_1_2)"/>
<path d="M44.9062 78.625C40.9479 78.625 37.4167 77.6562 34.3125 75.7188C31.2083 73.7812 28.7604 71.0312 26.9688 67.4688C25.1979 63.8854 24.3125 59.6458 24.3125 54.75C24.3125 49.8333 25.1979 45.5833 26.9688 42C28.7604 38.4167 31.2083 35.6562 34.3125 33.7188C37.4167 31.7812 40.9479 30.8125 44.9062 30.8125C48.8854 30.8125 52.4167 31.7812 55.5 33.7188C58.5833 35.6562 61.0104 38.4167 62.7812 42C64.5521 45.5833 65.4375 49.8333 65.4375 54.75C65.4375 59.6458 64.5521 63.8854 62.7812 67.4688C61.0104 71.0312 58.5833 73.7812 55.5 75.7188C52.4167 77.6562 48.8854 78.625 44.9062 78.625ZM44.9062 73.375C47.7188 73.375 50.2604 72.6667 52.5312 71.25C54.8229 69.8125 56.6354 67.7083 57.9688 64.9375C59.3229 62.1667 60 58.7708 60 54.75C60 50.7083 59.3229 47.3021 57.9688 44.5312C56.6354 41.7396 54.8229 39.6354 52.5312 38.2188C50.2604 36.7812 47.7188 36.0625 44.9062 36.0625C42.0938 36.0625 39.5417 36.7812 37.25 38.2188C34.9583 39.6354 33.1354 41.7396 31.7812 44.5312C30.4271 47.3021 29.75 50.7083 29.75 54.75C29.75 58.7708 30.4271 62.1667 31.7812 64.9375C33.1354 67.7083 34.9583 69.8125 37.25 71.25C39.5417 72.6667 42.0938 73.375 44.9062 73.375ZM93.1875 63.75V43.0625H98.5V78H93.1875V72.0625H92.8125C91.9792 73.8333 90.6979 75.3438 88.9688 76.5938C87.2604 77.8438 85.0833 78.4583 82.4375 78.4375C80.25 78.4375 78.3125 77.9688 76.625 77.0312C74.9375 76.0729 73.6042 74.6146 72.625 72.6562C71.6667 70.6979 71.1875 68.2292 71.1875 65.25V43.0625H76.5V64.9375C76.5 67.4583 77.2188 69.4792 78.6562 71C80.1146 72.5208 81.9583 73.2708 84.1875 73.25C85.5208 73.25 86.875 72.9167 88.25 72.25C89.6458 71.5625 90.8125 70.5208 91.75 69.125C92.7083 67.7083 93.1875 65.9167 93.1875 63.75ZM105.375 78V43.0625H110.5V48.375H110.875C111.521 46.6458 112.677 45.25 114.344 44.1875C116.031 43.1042 117.917 42.5625 120 42.5625C120.396 42.5625 120.885 42.5729 121.469 42.5938C122.052 42.5938 122.5 42.6042 122.812 42.625V48.0625C122.625 48.0208 122.208 47.9583 121.562 47.875C120.917 47.7917 120.229 47.75 119.5 47.75C117.812 47.75 116.302 48.1042 114.969 48.8125C113.635 49.5208 112.583 50.4896 111.812 51.7188C111.062 52.9479 110.688 54.3542 110.688 55.9375V78H105.375ZM141.875 31.4375H148.625L164.438 70.0625H165L180.812 31.4375H187.781V78H182.25V42.625H181.812L167.156 78H162.094L147.625 42.625H147.188V78H141.875V31.4375ZM210 78.75C206.646 78.75 203.74 78 201.281 76.5C198.844 75 196.969 72.9062 195.656 70.2188C194.344 67.5104 193.688 64.375 193.688 60.8125C193.688 57.2292 194.333 54.0729 195.625 51.3438C196.917 48.6146 198.729 46.4792 201.062 44.9375C203.417 43.3958 206.167 42.625 209.312 42.625C211.125 42.625 212.927 42.9271 214.719 43.5312C216.51 44.1354 218.135 45.1146 219.594 46.4688C221.073 47.8229 222.25 49.6146 223.125 51.8438C224 54.0729 224.438 56.8125 224.438 60.0625V62.375H197.5V57.75H221.531L219.062 59.5C219.062 57.1667 218.698 55.0938 217.969 53.2812C217.24 51.4688 216.146 50.0417 214.688 49C213.25 47.9583 211.458 47.4375 209.312 47.4375C207.167 47.4375 205.323 47.9688 203.781 49.0312C202.26 50.0729 201.094 51.4375 200.281 53.125C199.469 54.8125 199.062 56.625 199.062 58.5625V61.625C199.062 64.2708 199.521 66.5104 200.438 68.3438C201.354 70.1771 202.635 71.5729 204.281 72.5312C205.927 73.4688 207.833 73.9375 210 73.9375C211.396 73.9375 212.667 73.7396 213.812 73.3438C214.958 72.9271 215.948 72.3125 216.781 71.5C217.615 70.6667 218.25 69.6458 218.688 68.4375L223.875 69.9375C223.333 71.6875 222.417 73.2292 221.125 74.5625C219.854 75.875 218.271 76.9062 216.375 77.6562C214.479 78.3854 212.354 78.75 210 78.75ZM244.625 43.0625V47.625H226.562V43.0625H244.625ZM231.812 34.75H237.125V68C237.125 69.8125 237.5 71.1458 238.25 72C239 72.8333 240.188 73.25 241.812 73.25C242.167 73.25 242.531 73.2292 242.906 73.1875C243.302 73.1458 243.729 73.0833 244.188 73L245.312 77.8125C244.812 78 244.198 78.1458 243.469 78.25C242.76 78.375 242.042 78.4375 241.312 78.4375C238.5 78.4375 236.208 77.6042 234.438 75.9375C232.688 74.2708 231.812 72.1042 231.812 69.4375V34.75ZM255.812 57V78H250.5V31.4375H255.812V48.5625H256.312C257.125 46.75 258.344 45.3125 259.969 44.25C261.615 43.1667 263.812 42.625 266.562 42.625C268.938 42.625 271.021 43.1042 272.812 44.0625C274.604 45 276 46.4479 277 48.4062C278 50.3438 278.5 52.8125 278.5 55.8125V78H273.125V56.1875C273.125 53.3958 272.406 51.2396 270.969 49.7188C269.531 48.1979 267.542 47.4375 265 47.4375C263.229 47.4375 261.656 47.8125 260.281 48.5625C258.906 49.3125 257.812 50.3958 257 51.8125C256.208 53.2292 255.812 54.9583 255.812 57ZM299.5 78.75C296.354 78.75 293.594 78 291.219 76.5C288.844 75 286.99 72.8958 285.656 70.1875C284.344 67.4792 283.688 64.3333 283.688 60.75C283.688 57.1042 284.344 53.9271 285.656 51.2188C286.99 48.4896 288.844 46.375 291.219 44.875C293.594 43.375 296.354 42.625 299.5 42.625C302.667 42.625 305.438 43.375 307.812 44.875C310.188 46.375 312.042 48.4896 313.375 51.2188C314.708 53.9271 315.375 57.1042 315.375 60.75C315.375 64.3333 314.708 67.4792 313.375 70.1875C312.042 72.8958 310.188 75 307.812 76.5C305.438 78 302.667 78.75 299.5 78.75ZM299.5 73.9375C301.917 73.9375 303.896 73.3229 305.438 72.0938C306.979 70.8646 308.125 69.25 308.875 67.25C309.625 65.2292 310 63.0625 310 60.75C310 58.3958 309.625 56.2083 308.875 54.1875C308.125 52.1667 306.979 50.5417 305.438 49.3125C303.896 48.0625 301.917 47.4375 299.5 47.4375C297.125 47.4375 295.167 48.0625 293.625 49.3125C292.083 50.5417 290.938 52.1667 290.188 54.1875C289.438 56.2083 289.062 58.3958 289.062 60.75C289.062 63.0625 289.438 65.2292 290.188 67.25C290.938 69.25 292.083 70.8646 293.625 72.0938C295.167 73.3229 297.125 73.9375 299.5 73.9375ZM333.688 78.75C330.771 78.75 328.198 78.0104 325.969 76.5312C323.74 75.0521 322 72.9583 320.75 70.25C319.5 67.5208 318.875 64.3125 318.875 60.625C318.875 56.9583 319.5 53.7812 320.75 51.0938C322.021 48.3854 323.771 46.3021 326 44.8438C328.229 43.3646 330.812 42.625 333.75 42.625C336.042 42.625 337.844 43 339.156 43.75C340.49 44.5 341.51 45.3542 342.219 46.3125C342.927 47.25 343.479 48.0208 343.875 48.625H344.312V31.4375H349.625V78H344.5V72.625H343.875C343.479 73.25 342.917 74.0521 342.188 75.0312C341.458 75.9896 340.417 76.8542 339.062 77.625C337.729 78.375 335.938 78.75 333.688 78.75ZM334.375 73.9375C336.542 73.9375 338.365 73.375 339.844 72.25C341.323 71.1042 342.448 69.5312 343.219 67.5312C343.99 65.5104 344.375 63.1875 344.375 60.5625C344.375 57.9375 344 55.6458 343.25 53.6875C342.5 51.7083 341.375 50.1771 339.875 49.0938C338.396 47.9896 336.562 47.4375 334.375 47.4375C332.125 47.4375 330.25 48.0208 328.75 49.1875C327.25 50.3542 326.125 51.9271 325.375 53.9062C324.625 55.8854 324.25 58.1042 324.25 60.5625C324.25 63.0417 324.625 65.2917 325.375 67.3125C326.146 69.3333 327.281 70.9479 328.781 72.1562C330.281 73.3438 332.146 73.9375 334.375 73.9375Z" fill="black"/>
<path d="M23.8125 107.375V99.8125H75.5625V107.375H23.8125ZM23.8125 133.438V125.875H75.5625V133.438H23.8125Z" fill="url(#paint4_linear_1_2)"/>
<path d="M22.125 152.438H28.5625L41.5 174.188H42.0625L54.9375 152.438H61.4375L44.5625 179.812V199H38.9375V179.812L22.125 152.438ZM74.1875 199.75C71.0417 199.75 68.2812 199 65.9062 197.5C63.5312 196 61.6771 193.896 60.3438 191.188C59.0312 188.479 58.375 185.333 58.375 181.75C58.375 178.104 59.0312 174.927 60.3438 172.219C61.6771 169.49 63.5312 167.375 65.9062 165.875C68.2812 164.375 71.0417 163.625 74.1875 163.625C77.3542 163.625 80.125 164.375 82.5 165.875C84.875 167.375 86.7292 169.49 88.0625 172.219C89.3958 174.927 90.0625 178.104 90.0625 181.75C90.0625 185.333 89.3958 188.479 88.0625 191.188C86.7292 193.896 84.875 196 82.5 197.5C80.125 199 77.3542 199.75 74.1875 199.75ZM74.1875 194.938C76.6042 194.938 78.5833 194.323 80.125 193.094C81.6667 191.865 82.8125 190.25 83.5625 188.25C84.3125 186.229 84.6875 184.062 84.6875 181.75C84.6875 179.396 84.3125 177.208 83.5625 175.188C82.8125 173.167 81.6667 171.542 80.125 170.312C78.5833 169.062 76.6042 168.438 74.1875 168.438C71.8125 168.438 69.8542 169.062 68.3125 170.312C66.7708 171.542 65.625 173.167 64.875 175.188C64.125 177.208 63.75 179.396 63.75 181.75C63.75 184.062 64.125 186.229 64.875 188.25C65.625 190.25 66.7708 191.865 68.3125 193.094C69.8542 194.323 71.8125 194.938 74.1875 194.938ZM117.25 184.75V164.062H122.562V199H117.25V193.062H116.875C116.042 194.833 114.76 196.344 113.031 197.594C111.323 198.844 109.146 199.458 106.5 199.438C104.312 199.438 102.375 198.969 100.688 198.031C99 197.073 97.6667 195.615 96.6875 193.656C95.7292 191.698 95.25 189.229 95.25 186.25V164.062H100.562V185.938C100.562 188.458 101.281 190.479 102.719 192C104.177 193.521 106.021 194.271 108.25 194.25C109.583 194.25 110.938 193.917 112.312 193.25C113.708 192.562 114.875 191.521 115.812 190.125C116.771 188.708 117.25 186.917 117.25 184.75ZM129.438 199V164.062H134.562V169.375H134.938C135.583 167.646 136.74 166.25 138.406 165.188C140.094 164.104 141.979 163.562 144.062 163.562C144.458 163.562 144.948 163.573 145.531 163.594C146.115 163.594 146.562 163.604 146.875 163.625V169.062C146.688 169.021 146.271 168.958 145.625 168.875C144.979 168.792 144.292 168.75 143.562 168.75C141.875 168.75 140.365 169.104 139.031 169.812C137.698 170.521 136.646 171.49 135.875 172.719C135.125 173.948 134.75 175.354 134.75 176.938V199H129.438ZM34.7812 276L22.0938 229.438H27.7812L37.5312 267.375H37.9688L47.9062 229.438H54.2812L64.1562 267.375H64.6562L74.3438 229.438H80.0938L67.3438 276H61.5312L51.2812 238.938H50.9062L40.6562 276H34.7812ZM95 276.75C91.6458 276.75 88.7396 276 86.2812 274.5C83.8438 273 81.9688 270.906 80.6562 268.219C79.3438 265.51 78.6875 262.375 78.6875 258.812C78.6875 255.229 79.3333 252.073 80.625 249.344C81.9167 246.615 83.7292 244.479 86.0625 242.938C88.4167 241.396 91.1667 240.625 94.3125 240.625C96.125 240.625 97.9271 240.927 99.7188 241.531C101.51 242.135 103.135 243.115 104.594 244.469C106.073 245.823 107.25 247.615 108.125 249.844C109 252.073 109.438 254.812 109.438 258.062V260.375H82.5V255.75H106.531L104.062 257.5C104.062 255.167 103.698 253.094 102.969 251.281C102.24 249.469 101.146 248.042 99.6875 247C98.25 245.958 96.4583 245.438 94.3125 245.438C92.1667 245.438 90.3229 245.969 88.7812 247.031C87.2604 248.073 86.0938 249.438 85.2812 251.125C84.4688 252.812 84.0625 254.625 84.0625 256.562V259.625C84.0625 262.271 84.5208 264.51 85.4375 266.344C86.3542 268.177 87.6354 269.573 89.2812 270.531C90.9271 271.469 92.8333 271.938 95 271.938C96.3958 271.938 97.6667 271.74 98.8125 271.344C99.9583 270.927 100.948 270.312 101.781 269.5C102.615 268.667 103.25 267.646 103.688 266.438L108.875 267.938C108.333 269.688 107.417 271.229 106.125 272.562C104.854 273.875 103.271 274.906 101.375 275.656C99.4792 276.385 97.3542 276.75 95 276.75ZM130.438 276.75C128.208 276.75 126.417 276.375 125.062 275.625C123.708 274.854 122.667 273.99 121.938 273.031C121.208 272.052 120.646 271.25 120.25 270.625H119.625V276H114.5V229.438H119.812V246.625H120.25C120.646 246.021 121.198 245.25 121.906 244.312C122.615 243.354 123.635 242.5 124.969 241.75C126.302 241 128.104 240.625 130.375 240.625C133.312 240.625 135.896 241.365 138.125 242.844C140.354 244.302 142.094 246.385 143.344 249.094C144.615 251.781 145.25 254.958 145.25 258.625C145.25 262.312 144.625 265.521 143.375 268.25C142.125 270.958 140.385 273.052 138.156 274.531C135.927 276.01 133.354 276.75 130.438 276.75ZM129.75 271.938C131.979 271.938 133.844 271.344 135.344 270.156C136.844 268.948 137.969 267.333 138.719 265.312C139.49 263.292 139.875 261.042 139.875 258.562C139.875 256.104 139.5 253.885 138.75 251.906C138 249.927 136.875 248.354 135.375 247.188C133.896 246.021 132.021 245.438 129.75 245.438C127.562 245.438 125.729 245.99 124.25 247.094C122.771 248.177 121.646 249.708 120.875 251.688C120.125 253.646 119.75 255.938 119.75 258.562C119.75 261.188 120.135 263.51 120.906 265.531C121.677 267.531 122.802 269.104 124.281 270.25C125.781 271.375 127.604 271.938 129.75 271.938ZM180.875 276.812C177.542 276.812 174.656 276.281 172.219 275.219C169.781 274.135 167.865 272.635 166.469 270.719C165.094 268.781 164.312 266.542 164.125 264H169.938C170.104 265.75 170.698 267.198 171.719 268.344C172.76 269.49 174.083 270.344 175.688 270.906C177.292 271.469 179.021 271.75 180.875 271.75C183.021 271.75 184.948 271.396 186.656 270.688C188.385 269.979 189.75 268.99 190.75 267.719C191.75 266.448 192.25 264.958 192.25 263.25C192.25 261.708 191.812 260.458 190.938 259.5C190.062 258.542 188.917 257.76 187.5 257.156C186.104 256.552 184.583 256.021 182.938 255.562L177.25 253.938C173.604 252.896 170.719 251.406 168.594 249.469C166.49 247.51 165.438 244.958 165.438 241.812C165.438 239.208 166.135 236.938 167.531 235C168.948 233.042 170.854 231.521 173.25 230.438C175.667 229.354 178.354 228.812 181.312 228.812C184.312 228.812 186.979 229.354 189.312 230.438C191.646 231.5 193.5 232.958 194.875 234.812C196.25 236.646 196.979 238.729 197.062 241.062H191.562C191.292 238.771 190.188 236.99 188.25 235.719C186.333 234.448 183.958 233.812 181.125 233.812C179.083 233.812 177.292 234.146 175.75 234.812C174.208 235.479 173.01 236.396 172.156 237.562C171.302 238.729 170.875 240.062 170.875 241.562C170.875 243.208 171.385 244.542 172.406 245.562C173.427 246.562 174.635 247.344 176.031 247.906C177.448 248.469 178.729 248.917 179.875 249.25L184.562 250.562C185.771 250.896 187.115 251.344 188.594 251.906C190.094 252.469 191.531 253.229 192.906 254.188C194.302 255.146 195.448 256.375 196.344 257.875C197.24 259.354 197.688 261.188 197.688 263.375C197.688 265.875 197.031 268.146 195.719 270.188C194.406 272.208 192.5 273.823 190 275.031C187.5 276.219 184.458 276.812 180.875 276.812ZM225.25 261.75V241.062H230.562V276H225.25V270.062H224.875C224.042 271.833 222.76 273.344 221.031 274.594C219.323 275.844 217.146 276.458 214.5 276.438C212.312 276.438 210.375 275.969 208.688 275.031C207 274.073 205.667 272.615 204.688 270.656C203.729 268.698 203.25 266.229 203.25 263.25V241.062H208.562V262.938C208.562 265.458 209.281 267.479 210.719 269C212.177 270.521 214.021 271.271 216.25 271.25C217.583 271.25 218.938 270.917 220.312 270.25C221.708 269.562 222.875 268.521 223.812 267.125C224.771 265.708 225.25 263.917 225.25 261.75ZM251.562 276.75C248.312 276.75 245.5 275.979 243.125 274.438C240.771 272.875 238.948 270.74 237.656 268.031C236.385 265.323 235.75 262.229 235.75 258.75C235.75 255.188 236.406 252.052 237.719 249.344C239.031 246.615 240.865 244.479 243.219 242.938C245.594 241.396 248.354 240.625 251.5 240.625C253.958 240.625 256.167 241.083 258.125 242C260.104 242.896 261.719 244.167 262.969 245.812C264.24 247.458 265.021 249.375 265.312 251.562H259.938C259.667 250.5 259.177 249.5 258.469 248.562C257.76 247.625 256.823 246.875 255.656 246.312C254.51 245.729 253.146 245.438 251.562 245.438C249.479 245.438 247.656 245.979 246.094 247.062C244.531 248.146 243.312 249.677 242.438 251.656C241.562 253.615 241.125 255.917 241.125 258.562C241.125 261.25 241.552 263.604 242.406 265.625C243.26 267.625 244.469 269.177 246.031 270.281C247.615 271.385 249.458 271.938 251.562 271.938C253.667 271.938 255.469 271.396 256.969 270.312C258.469 269.208 259.458 267.708 259.938 265.812H265.312C265.021 267.875 264.271 269.729 263.062 271.375C261.875 273.021 260.302 274.333 258.344 275.312C256.406 276.271 254.146 276.75 251.562 276.75ZM284.5 276.75C281.25 276.75 278.438 275.979 276.062 274.438C273.708 272.875 271.885 270.74 270.594 268.031C269.323 265.323 268.688 262.229 268.688 258.75C268.688 255.188 269.344 252.052 270.656 249.344C271.969 246.615 273.802 244.479 276.156 242.938C278.531 241.396 281.292 240.625 284.438 240.625C286.896 240.625 289.104 241.083 291.062 242C293.042 242.896 294.656 244.167 295.906 245.812C297.177 247.458 297.958 249.375 298.25 251.562H292.875C292.604 250.5 292.115 249.5 291.406 248.562C290.698 247.625 289.76 246.875 288.594 246.312C287.448 245.729 286.083 245.438 284.5 245.438C282.417 245.438 280.594 245.979 279.031 247.062C277.469 248.146 276.25 249.677 275.375 251.656C274.5 253.615 274.062 255.917 274.062 258.562C274.062 261.25 274.49 263.604 275.344 265.625C276.198 267.625 277.406 269.177 278.969 270.281C280.552 271.385 282.396 271.938 284.5 271.938C286.604 271.938 288.406 271.396 289.906 270.312C291.406 269.208 292.396 267.708 292.875 265.812H298.25C297.958 267.875 297.208 269.729 296 271.375C294.812 273.021 293.24 274.333 291.281 275.312C289.344 276.271 287.083 276.75 284.5 276.75ZM317.938 276.75C314.583 276.75 311.677 276 309.219 274.5C306.781 273 304.906 270.906 303.594 268.219C302.281 265.51 301.625 262.375 301.625 258.812C301.625 255.229 302.271 252.073 303.562 249.344C304.854 246.615 306.667 244.479 309 242.938C311.354 241.396 314.104 240.625 317.25 240.625C319.062 240.625 320.865 240.927 322.656 241.531C324.448 242.135 326.073 243.115 327.531 244.469C329.01 245.823 330.188 247.615 331.062 249.844C331.938 252.073 332.375 254.812 332.375 258.062V260.375H305.438V255.75H329.469L327 257.5C327 255.167 326.635 253.094 325.906 251.281C325.177 249.469 324.083 248.042 322.625 247C321.188 245.958 319.396 245.438 317.25 245.438C315.104 245.438 313.26 245.969 311.719 247.031C310.198 248.073 309.031 249.438 308.219 251.125C307.406 252.812 307 254.625 307 256.562V259.625C307 262.271 307.458 264.51 308.375 266.344C309.292 268.177 310.573 269.573 312.219 270.531C313.865 271.469 315.771 271.938 317.938 271.938C319.333 271.938 320.604 271.74 321.75 271.344C322.896 270.927 323.885 270.312 324.719 269.5C325.552 268.667 326.188 267.646 326.625 266.438L331.812 267.938C331.271 269.688 330.354 271.229 329.062 272.562C327.792 273.875 326.208 274.906 324.312 275.656C322.417 276.385 320.292 276.75 317.938 276.75ZM362.125 248.938L357.312 250.25C356.854 249.062 356.062 247.938 354.938 246.875C353.833 245.792 352.104 245.25 349.75 245.25C347.625 245.25 345.854 245.75 344.438 246.75C343.021 247.729 342.312 248.958 342.312 250.438C342.312 251.771 342.792 252.833 343.75 253.625C344.729 254.417 346.25 255.062 348.312 255.562L353.5 256.812C356.604 257.562 358.917 258.719 360.438 260.281C361.979 261.844 362.75 263.833 362.75 266.25C362.75 268.25 362.177 270.042 361.031 271.625C359.885 273.208 358.292 274.458 356.25 275.375C354.208 276.292 351.833 276.75 349.125 276.75C345.562 276.75 342.615 275.969 340.281 274.406C337.969 272.844 336.5 270.583 335.875 267.625L340.938 266.375C341.417 268.25 342.333 269.656 343.688 270.594C345.062 271.531 346.854 272 349.062 272C351.542 272 353.521 271.469 355 270.406C356.5 269.323 357.25 268.042 357.25 266.562C357.25 264.104 355.521 262.458 352.062 261.625L346.25 260.25C343.042 259.479 340.688 258.302 339.188 256.719C337.688 255.135 336.938 253.146 336.938 250.75C336.938 248.771 337.49 247.021 338.594 245.5C339.719 243.979 341.25 242.792 343.188 241.938C345.125 241.062 347.312 240.625 349.75 240.625C353.229 240.625 355.948 241.396 357.906 242.938C359.885 244.458 361.292 246.458 362.125 248.938ZM392.562 248.938L387.75 250.25C387.292 249.062 386.5 247.938 385.375 246.875C384.271 245.792 382.542 245.25 380.188 245.25C378.062 245.25 376.292 245.75 374.875 246.75C373.458 247.729 372.75 248.958 372.75 250.438C372.75 251.771 373.229 252.833 374.188 253.625C375.167 254.417 376.688 255.062 378.75 255.562L383.938 256.812C387.042 257.562 389.354 258.719 390.875 260.281C392.417 261.844 393.188 263.833 393.188 266.25C393.188 268.25 392.615 270.042 391.469 271.625C390.323 273.208 388.729 274.458 386.688 275.375C384.646 276.292 382.271 276.75 379.562 276.75C376 276.75 373.052 275.969 370.719 274.406C368.406 272.844 366.938 270.583 366.312 267.625L371.375 266.375C371.854 268.25 372.771 269.656 374.125 270.594C375.5 271.531 377.292 272 379.5 272C381.979 272 383.958 271.469 385.438 270.406C386.938 269.323 387.688 268.042 387.688 266.562C387.688 264.104 385.958 262.458 382.5 261.625L376.688 260.25C373.479 259.479 371.125 258.302 369.625 256.719C368.125 255.135 367.375 253.146 367.375 250.75C367.375 248.771 367.927 247.021 369.031 245.5C370.156 243.979 371.688 242.792 373.625 241.938C375.562 241.062 377.75 240.625 380.188 240.625C383.667 240.625 386.385 241.396 388.344 242.938C390.323 244.458 391.729 246.458 392.562 248.938Z" fill="black"/>
<defs>
<linearGradient id="paint0_linear_1_2" x1="256" y1="0" x2="256" y2="307" gradientUnits="userSpaceOnUse">
<stop stop-color="white"/>
<stop offset="1" stop-color="#999999"/>
</linearGradient>
<linearGradient id="paint1_linear_1_2" x1="303" y1="93" x2="303" y2="227" gradientUnits="userSpaceOnUse">
<stop stop-color="#D9D9D9"/>
<stop offset="1" stop-color="#737373"/>
</linearGradient>
<linearGradient id="paint2_linear_1_2" x1="362" y1="93" x2="362" y2="227" gradientUnits="userSpaceOnUse">
<stop stop-color="#BCBCBC"/>
<stop offset="1" stop-color="#565656"/>
</linearGradient>
<linearGradient id="paint3_linear_1_2" x1="421" y1="93" x2="421" y2="227" gradientUnits="userSpaceOnUse">
<stop stop-color="#8F8F8F"/>
<stop offset="1" stop-color="#292929"/>
</linearGradient>
<linearGradient id="paint4_linear_1_2" x1="50" y1="82.5" x2="50" y2="145" gradientUnits="userSpaceOnUse">
<stop/>
<stop offset="1" stop-color="#666666"/>
</linearGradient>
</defs>
</svg>
