<svg width="512" height="307" viewBox="0 0 512 307" fill="none" xmlns="http://www.w3.org/2000/svg">
<g clip-path="url(#clip0_2003_2)">
<rect width="512" height="307" fill="url(#paint0_linear_2003_2)"/>
<circle cx="76.5" cy="61.5" r="142.5" fill="url(#paint1_linear_2003_2)"/>
<circle cx="589.5" cy="267.5" r="176.5" fill="url(#paint2_linear_2003_2)"/>
<path d="M26.125 78V31.4375H54.25V36.4375H31.75V52H52.75V57H31.75V73H54.5625V78H26.125ZM66 57V78H60.6875V43.0625H65.8125V48.5625H66.3125C67.125 46.7708 68.3646 45.3333 70.0312 44.25C71.6979 43.1667 73.8542 42.625 76.5 42.625C78.8542 42.625 80.9167 43.1042 82.6875 44.0625C84.4583 45.0208 85.8333 46.4792 86.8125 48.4375C87.8125 50.375 88.3125 52.8333 88.3125 55.8125V78H83V56.1875C83 53.4583 82.2812 51.3229 80.8438 49.7812C79.4062 48.2188 77.4479 47.4375 74.9688 47.4375C73.2604 47.4375 71.7292 47.8125 70.375 48.5625C69.0208 49.3125 67.9479 50.3958 67.1562 51.8125C66.3854 53.2292 66 54.9583 66 57ZM110.312 43.0625V47.625H92.25V43.0625H110.312ZM97.5 34.75H102.812V68C102.812 69.8125 103.188 71.1458 103.938 72C104.688 72.8333 105.875 73.25 107.5 73.25C107.854 73.25 108.219 73.2292 108.594 73.1875C108.99 73.1458 109.417 73.0833 109.875 73L111 77.8125C110.5 78 109.885 78.1458 109.156 78.25C108.448 78.375 107.729 78.4375 107 78.4375C104.188 78.4375 101.896 77.6042 100.125 75.9375C98.375 74.2708 97.5 72.1042 97.5 69.4375V34.75ZM129.688 78.75C126.333 78.75 123.427 78 120.969 76.5C118.531 75 116.656 72.9062 115.344 70.2188C114.031 67.5104 113.375 64.375 113.375 60.8125C113.375 57.2292 114.021 54.0729 115.312 51.3438C116.604 48.6146 118.417 46.4792 120.75 44.9375C123.104 43.3958 125.854 42.625 129 42.625C130.812 42.625 132.615 42.9271 134.406 43.5312C136.198 44.1354 137.823 45.1146 139.281 46.4688C140.76 47.8229 141.938 49.6146 142.812 51.8438C143.688 54.0729 144.125 56.8125 144.125 60.0625V62.375H117.188V57.75H141.219L138.75 59.5C138.75 57.1667 138.385 55.0938 137.656 53.2812C136.927 51.4688 135.833 50.0417 134.375 49C132.938 47.9583 131.146 47.4375 129 47.4375C126.854 47.4375 125.01 47.9688 123.469 49.0312C121.948 50.0729 120.781 51.4375 119.969 53.125C119.156 54.8125 118.75 56.625 118.75 58.5625V61.625C118.75 64.2708 119.208 66.5104 120.125 68.3438C121.042 70.1771 122.323 71.5729 123.969 72.5312C125.615 73.4688 127.521 73.9375 129.688 73.9375C131.083 73.9375 132.354 73.7396 133.5 73.3438C134.646 72.9271 135.635 72.3125 136.469 71.5C137.302 70.6667 137.938 69.6458 138.375 68.4375L143.562 69.9375C143.021 71.6875 142.104 73.2292 140.812 74.5625C139.542 75.875 137.958 76.9062 136.062 77.6562C134.167 78.3854 132.042 78.75 129.688 78.75ZM149.188 78V43.0625H154.312V48.375H154.688C155.333 46.6458 156.49 45.25 158.156 44.1875C159.844 43.1042 161.729 42.5625 163.812 42.5625C164.208 42.5625 164.698 42.5729 165.281 42.5938C165.865 42.5938 166.312 42.6042 166.625 42.625V48.0625C166.438 48.0208 166.021 47.9583 165.375 47.875C164.729 47.7917 164.042 47.75 163.312 47.75C161.625 47.75 160.115 48.1042 158.781 48.8125C157.448 49.5208 156.396 50.4896 155.625 51.7188C154.875 52.9479 154.5 54.3542 154.5 55.9375V78H149.188ZM170 91.0625V43.0625H175.125V48.625H175.75C176.146 48.0208 176.698 47.25 177.406 46.3125C178.115 45.3542 179.135 44.5 180.469 43.75C181.802 43 183.604 42.625 185.875 42.625C188.812 42.625 191.396 43.3646 193.625 44.8438C195.854 46.3021 197.594 48.3854 198.844 51.0938C200.115 53.7812 200.75 56.9583 200.75 60.625C200.75 64.3125 200.125 67.5208 198.875 70.25C197.625 72.9583 195.885 75.0521 193.656 76.5312C191.427 78.0104 188.854 78.75 185.938 78.75C183.708 78.75 181.917 78.375 180.562 77.625C179.208 76.8542 178.167 75.9896 177.438 75.0312C176.708 74.0521 176.146 73.25 175.75 72.625H175.312V91.0625H170ZM185.25 73.9375C187.479 73.9375 189.344 73.3438 190.844 72.1562C192.344 70.9479 193.469 69.3333 194.219 67.3125C194.99 65.2917 195.375 63.0417 195.375 60.5625C195.375 58.1042 195 55.8854 194.25 53.9062C193.5 51.9271 192.375 50.3542 190.875 49.1875C189.396 48.0208 187.521 47.4375 185.25 47.4375C183.062 47.4375 181.229 47.9896 179.75 49.0938C178.271 50.1771 177.146 51.7083 176.375 53.6875C175.625 55.6458 175.25 57.9375 175.25 60.5625C175.25 63.1875 175.635 65.5104 176.406 67.5312C177.177 69.5312 178.302 71.1042 179.781 72.25C181.281 73.375 183.104 73.9375 185.25 73.9375ZM205.938 78V43.0625H211.062V48.375H211.438C212.083 46.6458 213.24 45.25 214.906 44.1875C216.594 43.1042 218.479 42.5625 220.562 42.5625C220.958 42.5625 221.448 42.5729 222.031 42.5938C222.615 42.5938 223.062 42.6042 223.375 42.625V48.0625C223.188 48.0208 222.771 47.9583 222.125 47.875C221.479 47.7917 220.792 47.75 220.062 47.75C218.375 47.75 216.865 48.1042 215.531 48.8125C214.198 49.5208 213.146 50.4896 212.375 51.7188C211.625 52.9479 211.25 54.3542 211.25 55.9375V78H205.938ZM226.75 78V43.0625H232.062V78H226.75ZM229.438 37.25C228.396 37.25 227.5 36.8958 226.75 36.1875C226 35.4792 225.625 34.625 225.625 33.625C225.625 32.625 226 31.7708 226.75 31.0625C227.5 30.3542 228.396 30 229.438 30C230.479 30 231.375 30.3542 232.125 31.0625C232.875 31.7708 233.25 32.625 233.25 33.625C233.25 34.625 232.875 35.4792 232.125 36.1875C231.375 36.8958 230.479 37.25 229.438 37.25ZM263.625 50.9375L258.812 52.25C258.354 51.0625 257.562 49.9375 256.438 48.875C255.333 47.7917 253.604 47.25 251.25 47.25C249.125 47.25 247.354 47.75 245.938 48.75C244.521 49.7292 243.812 50.9583 243.812 52.4375C243.812 53.7708 244.292 54.8333 245.25 55.625C246.229 56.4167 247.75 57.0625 249.812 57.5625L255 58.8125C258.104 59.5625 260.417 60.7188 261.938 62.2812C263.479 63.8438 264.25 65.8333 264.25 68.25C264.25 70.25 263.677 72.0417 262.531 73.625C261.385 75.2083 259.792 76.4583 257.75 77.375C255.708 78.2917 253.333 78.75 250.625 78.75C247.062 78.75 244.115 77.9688 241.781 76.4062C239.469 74.8438 238 72.5833 237.375 69.625L242.438 68.375C242.917 70.25 243.833 71.6562 245.188 72.5938C246.562 73.5312 248.354 74 250.562 74C253.042 74 255.021 73.4688 256.5 72.4062C258 71.3229 258.75 70.0417 258.75 68.5625C258.75 66.1042 257.021 64.4583 253.562 63.625L247.75 62.25C244.542 61.4792 242.188 60.3021 240.688 58.7188C239.188 57.1354 238.438 55.1458 238.438 52.75C238.438 50.7708 238.99 49.0208 240.094 47.5C241.219 45.9792 242.75 44.7917 244.688 43.9375C246.625 43.0625 248.812 42.625 251.25 42.625C254.729 42.625 257.448 43.3958 259.406 44.9375C261.385 46.4583 262.792 48.4583 263.625 50.9375ZM284 78.75C280.646 78.75 277.74 78 275.281 76.5C272.844 75 270.969 72.9062 269.656 70.2188C268.344 67.5104 267.688 64.375 267.688 60.8125C267.688 57.2292 268.333 54.0729 269.625 51.3438C270.917 48.6146 272.729 46.4792 275.062 44.9375C277.417 43.3958 280.167 42.625 283.312 42.625C285.125 42.625 286.927 42.9271 288.719 43.5312C290.51 44.1354 292.135 45.1146 293.594 46.4688C295.073 47.8229 296.25 49.6146 297.125 51.8438C298 54.0729 298.438 56.8125 298.438 60.0625V62.375H271.5V57.75H295.531L293.062 59.5C293.062 57.1667 292.698 55.0938 291.969 53.2812C291.24 51.4688 290.146 50.0417 288.688 49C287.25 47.9583 285.458 47.4375 283.312 47.4375C281.167 47.4375 279.323 47.9688 277.781 49.0312C276.26 50.0729 275.094 51.4375 274.281 53.125C273.469 54.8125 273.062 56.625 273.062 58.5625V61.625C273.062 64.2708 273.521 66.5104 274.438 68.3438C275.354 70.1771 276.635 71.5729 278.281 72.5312C279.927 73.4688 281.833 73.9375 284 73.9375C285.396 73.9375 286.667 73.7396 287.812 73.3438C288.958 72.9271 289.948 72.3125 290.781 71.5C291.615 70.6667 292.25 69.6458 292.688 68.4375L297.875 69.9375C297.333 71.6875 296.417 73.2292 295.125 74.5625C293.854 75.875 292.271 76.9062 290.375 77.6562C288.479 78.3854 286.354 78.75 284 78.75ZM338.125 78.625C334 78.625 330.375 77.6562 327.25 75.7188C324.146 73.7812 321.719 71.0312 319.969 67.4688C318.24 63.8854 317.375 59.6458 317.375 54.75C317.375 49.8333 318.24 45.5833 319.969 42C321.719 38.4167 324.125 35.6562 327.188 33.7188C330.25 31.7812 333.771 30.8125 337.75 30.8125C340.208 30.8125 342.5 31.1771 344.625 31.9062C346.75 32.6354 348.646 33.6771 350.312 35.0312C351.979 36.3854 353.365 37.9896 354.469 39.8438C355.594 41.6979 356.375 43.75 356.812 46H351C350.5 44.4583 349.844 43.0833 349.031 41.875C348.24 40.6458 347.281 39.6042 346.156 38.75C345.031 37.875 343.771 37.2083 342.375 36.75C340.979 36.2917 339.438 36.0625 337.75 36.0625C335 36.0625 332.49 36.7812 330.219 38.2188C327.969 39.6354 326.167 41.7396 324.812 44.5312C323.479 47.3021 322.812 50.7083 322.812 54.75C322.812 58.7708 323.49 62.1667 324.844 64.9375C326.198 67.7083 328.031 69.8125 330.344 71.25C332.656 72.6667 335.25 73.375 338.125 73.375C340.792 73.375 343.135 72.8021 345.156 71.6562C347.177 70.5104 348.76 68.8958 349.906 66.8125C351.052 64.7083 351.625 62.2292 351.625 59.375L353.375 59.75H339.375V54.75H357.125V59.75C357.125 63.5833 356.312 66.9167 354.688 69.75C353.062 72.5625 350.812 74.75 347.938 76.3125C345.083 77.8542 341.812 78.625 338.125 78.625ZM363.062 78V43.0625H368.188V48.375H368.562C369.208 46.6458 370.365 45.25 372.031 44.1875C373.719 43.1042 375.604 42.5625 377.688 42.5625C378.083 42.5625 378.573 42.5729 379.156 42.5938C379.74 42.5938 380.188 42.6042 380.5 42.625V48.0625C380.312 48.0208 379.896 47.9583 379.25 47.875C378.604 47.7917 377.917 47.75 377.188 47.75C375.5 47.75 373.99 48.1042 372.656 48.8125C371.323 49.5208 370.271 50.4896 369.5 51.7188C368.75 52.9479 368.375 54.3542 368.375 55.9375V78H363.062ZM394.125 78.8125C391.917 78.8125 389.906 78.3958 388.094 77.5625C386.281 76.7083 384.844 75.4792 383.781 73.875C382.719 72.2708 382.188 70.3333 382.188 68.0625C382.188 66.0625 382.583 64.4479 383.375 63.2188C384.167 61.9688 385.219 60.9896 386.531 60.2812C387.865 59.5521 389.323 59.0104 390.906 58.6562C392.51 58.3021 394.125 58.0208 395.75 57.8125C397.875 57.5417 399.594 57.3333 400.906 57.1875C402.24 57.0417 403.208 56.7917 403.812 56.4375C404.438 56.0833 404.75 55.4792 404.75 54.625V54.4375C404.75 52.2083 404.135 50.4792 402.906 49.25C401.698 48 399.854 47.375 397.375 47.375C394.833 47.375 392.833 47.9375 391.375 49.0625C389.917 50.1667 388.896 51.3542 388.312 52.625L383.188 50.8125C384.104 48.6875 385.323 47.0312 386.844 45.8438C388.385 44.6562 390.052 43.8229 391.844 43.3438C393.656 42.8646 395.438 42.625 397.188 42.625C398.312 42.625 399.604 42.7604 401.062 43.0312C402.521 43.2812 403.938 43.8229 405.312 44.6562C406.708 45.4688 407.854 46.7083 408.75 48.375C409.667 50.0208 410.125 52.2292 410.125 55V78H404.75V73.25H404.5C404.146 74 403.542 74.8125 402.688 75.6875C401.833 76.5417 400.698 77.2812 399.281 77.9062C397.885 78.5104 396.167 78.8125 394.125 78.8125ZM394.938 74C397.062 74 398.854 73.5833 400.312 72.75C401.771 71.9167 402.875 70.8438 403.625 69.5312C404.375 68.1979 404.75 66.8125 404.75 65.375V60.4375C404.521 60.7083 404.021 60.9583 403.25 61.1875C402.5 61.3958 401.625 61.5833 400.625 61.75C399.646 61.9167 398.688 62.0625 397.75 62.1875C396.812 62.2917 396.062 62.375 395.5 62.4375C394.104 62.625 392.802 62.9271 391.594 63.3438C390.385 63.7396 389.406 64.3333 388.656 65.125C387.927 65.9167 387.562 67 387.562 68.375C387.562 70.2292 388.25 71.6354 389.625 72.5938C391.021 73.5312 392.792 74 394.938 74ZM430.125 78.75C427.208 78.75 424.635 78.0104 422.406 76.5312C420.177 75.0521 418.438 72.9583 417.188 70.25C415.938 67.5208 415.312 64.3125 415.312 60.625C415.312 56.9583 415.938 53.7812 417.188 51.0938C418.458 48.3854 420.208 46.3021 422.438 44.8438C424.667 43.3646 427.25 42.625 430.188 42.625C432.479 42.625 434.281 43 435.594 43.75C436.927 44.5 437.948 45.3542 438.656 46.3125C439.365 47.25 439.917 48.0208 440.312 48.625H440.75V31.4375H446.062V78H440.938V72.625H440.312C439.917 73.25 439.354 74.0521 438.625 75.0312C437.896 75.9896 436.854 76.8542 435.5 77.625C434.167 78.375 432.375 78.75 430.125 78.75ZM430.812 73.9375C432.979 73.9375 434.802 73.375 436.281 72.25C437.76 71.1042 438.885 69.5312 439.656 67.5312C440.427 65.5104 440.812 63.1875 440.812 60.5625C440.812 57.9375 440.438 55.6458 439.688 53.6875C438.938 51.7083 437.812 50.1771 436.312 49.0938C434.833 47.9896 433 47.4375 430.812 47.4375C428.562 47.4375 426.688 48.0208 425.188 49.1875C423.688 50.3542 422.562 51.9271 421.812 53.9062C421.062 55.8854 420.688 58.1042 420.688 60.5625C420.688 63.0417 421.062 65.2917 421.812 67.3125C422.583 69.3333 423.719 70.9479 425.219 72.1562C426.719 73.3438 428.583 73.9375 430.812 73.9375ZM467.562 78.75C464.208 78.75 461.302 78 458.844 76.5C456.406 75 454.531 72.9062 453.219 70.2188C451.906 67.5104 451.25 64.375 451.25 60.8125C451.25 57.2292 451.896 54.0729 453.188 51.3438C454.479 48.6146 456.292 46.4792 458.625 44.9375C460.979 43.3958 463.729 42.625 466.875 42.625C468.688 42.625 470.49 42.9271 472.281 43.5312C474.073 44.1354 475.698 45.1146 477.156 46.4688C478.635 47.8229 479.812 49.6146 480.688 51.8438C481.562 54.0729 482 56.8125 482 60.0625V62.375H455.062V57.75H479.094L476.625 59.5C476.625 57.1667 476.26 55.0938 475.531 53.2812C474.802 51.4688 473.708 50.0417 472.25 49C470.812 47.9583 469.021 47.4375 466.875 47.4375C464.729 47.4375 462.885 47.9688 461.344 49.0312C459.823 50.0729 458.656 51.4375 457.844 53.125C457.031 54.8125 456.625 56.625 456.625 58.5625V61.625C456.625 64.2708 457.083 66.5104 458 68.3438C458.917 70.1771 460.198 71.5729 461.844 72.5312C463.49 73.4688 465.396 73.9375 467.562 73.9375C468.958 73.9375 470.229 73.7396 471.375 73.3438C472.521 72.9271 473.51 72.3125 474.344 71.5C475.177 70.6667 475.812 69.6458 476.25 68.4375L481.438 69.9375C480.896 71.6875 479.979 73.2292 478.688 74.5625C477.417 75.875 475.833 76.9062 473.938 77.6562C472.042 78.3854 469.917 78.75 467.562 78.75ZM40.875 155.812C37.5417 155.812 34.6562 155.281 32.2188 154.219C29.7812 153.135 27.8646 151.635 26.4688 149.719C25.0938 147.781 24.3125 145.542 24.125 143H29.9375C30.1042 144.75 30.6979 146.198 31.7188 147.344C32.7604 148.49 34.0833 149.344 35.6875 149.906C37.2917 150.469 39.0208 150.75 40.875 150.75C43.0208 150.75 44.9479 150.396 46.6562 149.688C48.3854 148.979 49.75 147.99 50.75 146.719C51.75 145.448 52.25 143.958 52.25 142.25C52.25 140.708 51.8125 139.458 50.9375 138.5C50.0625 137.542 48.9167 136.76 47.5 136.156C46.1042 135.552 44.5833 135.021 42.9375 134.562L37.25 132.938C33.6042 131.896 30.7188 130.406 28.5938 128.469C26.4896 126.51 25.4375 123.958 25.4375 120.812C25.4375 118.208 26.1354 115.938 27.5312 114C28.9479 112.042 30.8542 110.521 33.25 109.438C35.6667 108.354 38.3542 107.812 41.3125 107.812C44.3125 107.812 46.9792 108.354 49.3125 109.438C51.6458 110.5 53.5 111.958 54.875 113.812C56.25 115.646 56.9792 117.729 57.0625 120.062H51.5625C51.2917 117.771 50.1875 115.99 48.25 114.719C46.3333 113.448 43.9583 112.812 41.125 112.812C39.0833 112.812 37.2917 113.146 35.75 113.812C34.2083 114.479 33.0104 115.396 32.1562 116.562C31.3021 117.729 30.875 119.062 30.875 120.562C30.875 122.208 31.3854 123.542 32.4062 124.562C33.4271 125.562 34.6354 126.344 36.0312 126.906C37.4479 127.469 38.7292 127.917 39.875 128.25L44.5625 129.562C45.7708 129.896 47.1146 130.344 48.5938 130.906C50.0938 131.469 51.5312 132.229 52.9062 133.188C54.3021 134.146 55.4479 135.375 56.3438 136.875C57.2396 138.354 57.6875 140.188 57.6875 142.375C57.6875 144.875 57.0312 147.146 55.7188 149.188C54.4062 151.208 52.5 152.823 50 154.031C47.5 155.219 44.4583 155.812 40.875 155.812ZM77.375 155.75C74.2292 155.75 71.4688 155 69.0938 153.5C66.7188 152 64.8646 149.896 63.5312 147.188C62.2188 144.479 61.5625 141.333 61.5625 137.75C61.5625 134.104 62.2188 130.927 63.5312 128.219C64.8646 125.49 66.7188 123.375 69.0938 121.875C71.4688 120.375 74.2292 119.625 77.375 119.625C80.5417 119.625 83.3125 120.375 85.6875 121.875C88.0625 123.375 89.9167 125.49 91.25 128.219C92.5833 130.927 93.25 134.104 93.25 137.75C93.25 141.333 92.5833 144.479 91.25 147.188C89.9167 149.896 88.0625 152 85.6875 153.5C83.3125 155 80.5417 155.75 77.375 155.75ZM77.375 150.938C79.7917 150.938 81.7708 150.323 83.3125 149.094C84.8542 147.865 86 146.25 86.75 144.25C87.5 142.229 87.875 140.062 87.875 137.75C87.875 135.396 87.5 133.208 86.75 131.188C86 129.167 84.8542 127.542 83.3125 126.312C81.7708 125.062 79.7917 124.438 77.375 124.438C75 124.438 73.0417 125.062 71.5 126.312C69.9583 127.542 68.8125 129.167 68.0625 131.188C67.3125 133.208 66.9375 135.396 66.9375 137.75C66.9375 140.062 67.3125 142.229 68.0625 144.25C68.8125 146.25 69.9583 147.865 71.5 149.094C73.0417 150.323 75 150.938 77.375 150.938ZM103.75 108.438V155H98.4375V108.438H103.75ZM132.625 140.75V120.062H137.938V155H132.625V149.062H132.25C131.417 150.833 130.135 152.344 128.406 153.594C126.698 154.844 124.521 155.458 121.875 155.438C119.688 155.438 117.75 154.969 116.062 154.031C114.375 153.073 113.042 151.615 112.062 149.656C111.104 147.698 110.625 145.229 110.625 142.25V120.062H115.938V141.938C115.938 144.458 116.656 146.479 118.094 148C119.552 149.521 121.396 150.271 123.625 150.25C124.958 150.25 126.312 149.917 127.688 149.25C129.083 148.562 130.25 147.521 131.188 146.125C132.146 144.708 132.625 142.917 132.625 140.75ZM159.938 120.062V124.625H141.875V120.062H159.938ZM147.125 111.75H152.438V145C152.438 146.812 152.812 148.146 153.562 149C154.312 149.833 155.5 150.25 157.125 150.25C157.479 150.25 157.844 150.229 158.219 150.188C158.615 150.146 159.042 150.083 159.5 150L160.625 154.812C160.125 155 159.51 155.146 158.781 155.25C158.073 155.375 157.354 155.438 156.625 155.438C153.812 155.438 151.521 154.604 149.75 152.938C148 151.271 147.125 149.104 147.125 146.438V111.75ZM165.062 155V120.062H170.375V155H165.062ZM167.75 114.25C166.708 114.25 165.812 113.896 165.062 113.188C164.312 112.479 163.938 111.625 163.938 110.625C163.938 109.625 164.312 108.771 165.062 108.062C165.812 107.354 166.708 107 167.75 107C168.792 107 169.688 107.354 170.438 108.062C171.188 108.771 171.562 109.625 171.562 110.625C171.562 111.625 171.188 112.479 170.438 113.188C169.688 113.896 168.792 114.25 167.75 114.25ZM191.375 155.75C188.229 155.75 185.469 155 183.094 153.5C180.719 152 178.865 149.896 177.531 147.188C176.219 144.479 175.562 141.333 175.562 137.75C175.562 134.104 176.219 130.927 177.531 128.219C178.865 125.49 180.719 123.375 183.094 121.875C185.469 120.375 188.229 119.625 191.375 119.625C194.542 119.625 197.312 120.375 199.688 121.875C202.062 123.375 203.917 125.49 205.25 128.219C206.583 130.927 207.25 134.104 207.25 137.75C207.25 141.333 206.583 144.479 205.25 147.188C203.917 149.896 202.062 152 199.688 153.5C197.312 155 194.542 155.75 191.375 155.75ZM191.375 150.938C193.792 150.938 195.771 150.323 197.312 149.094C198.854 147.865 200 146.25 200.75 144.25C201.5 142.229 201.875 140.062 201.875 137.75C201.875 135.396 201.5 133.208 200.75 131.188C200 129.167 198.854 127.542 197.312 126.312C195.771 125.062 193.792 124.438 191.375 124.438C189 124.438 187.042 125.062 185.5 126.312C183.958 127.542 182.812 129.167 182.062 131.188C181.312 133.208 180.938 135.396 180.938 137.75C180.938 140.062 181.312 142.229 182.062 144.25C182.812 146.25 183.958 147.865 185.5 149.094C187.042 150.323 189 150.938 191.375 150.938ZM217.75 134V155H212.438V120.062H217.562V125.562H218.062C218.875 123.771 220.115 122.333 221.781 121.25C223.448 120.167 225.604 119.625 228.25 119.625C230.604 119.625 232.667 120.104 234.438 121.062C236.208 122.021 237.583 123.479 238.562 125.438C239.562 127.375 240.062 129.833 240.062 132.812V155H234.75V133.188C234.75 130.458 234.031 128.323 232.594 126.781C231.156 125.219 229.198 124.438 226.719 124.438C225.01 124.438 223.479 124.812 222.125 125.562C220.771 126.312 219.698 127.396 218.906 128.812C218.135 130.229 217.75 131.958 217.75 134ZM271.625 127.938L266.812 129.25C266.354 128.062 265.562 126.938 264.438 125.875C263.333 124.792 261.604 124.25 259.25 124.25C257.125 124.25 255.354 124.75 253.938 125.75C252.521 126.729 251.812 127.958 251.812 129.438C251.812 130.771 252.292 131.833 253.25 132.625C254.229 133.417 255.75 134.062 257.812 134.562L263 135.812C266.104 136.562 268.417 137.719 269.938 139.281C271.479 140.844 272.25 142.833 272.25 145.25C272.25 147.25 271.677 149.042 270.531 150.625C269.385 152.208 267.792 153.458 265.75 154.375C263.708 155.292 261.333 155.75 258.625 155.75C255.062 155.75 252.115 154.969 249.781 153.406C247.469 151.844 246 149.583 245.375 146.625L250.438 145.375C250.917 147.25 251.833 148.656 253.188 149.594C254.562 150.531 256.354 151 258.562 151C261.042 151 263.021 150.469 264.5 149.406C266 148.323 266.75 147.042 266.75 145.562C266.75 143.104 265.021 141.458 261.562 140.625L255.75 139.25C252.542 138.479 250.188 137.302 248.688 135.719C247.188 134.135 246.438 132.146 246.438 129.75C246.438 127.771 246.99 126.021 248.094 124.5C249.219 122.979 250.75 121.792 252.688 120.938C254.625 120.062 256.812 119.625 259.25 119.625C262.729 119.625 265.448 120.396 267.406 121.938C269.385 123.458 270.792 125.458 271.625 127.938ZM307.875 120.062V124.625H289.062V120.062H307.875ZM294.688 155V115.25C294.688 113.25 295.156 111.583 296.094 110.25C297.052 108.917 298.281 107.917 299.781 107.25C301.281 106.583 302.854 106.25 304.5 106.25C305.833 106.25 306.917 106.365 307.75 106.594C308.604 106.802 309.229 107 309.625 107.188L308.062 111.812C307.792 111.708 307.417 111.594 306.938 111.469C306.479 111.323 305.854 111.25 305.062 111.25C303.292 111.25 302 111.708 301.188 112.625C300.396 113.521 300 114.833 300 116.562V155H294.688ZM325.125 155.75C321.979 155.75 319.219 155 316.844 153.5C314.469 152 312.615 149.896 311.281 147.188C309.969 144.479 309.312 141.333 309.312 137.75C309.312 134.104 309.969 130.927 311.281 128.219C312.615 125.49 314.469 123.375 316.844 121.875C319.219 120.375 321.979 119.625 325.125 119.625C328.292 119.625 331.062 120.375 333.438 121.875C335.812 123.375 337.667 125.49 339 128.219C340.333 130.927 341 134.104 341 137.75C341 141.333 340.333 144.479 339 147.188C337.667 149.896 335.812 152 333.438 153.5C331.062 155 328.292 155.75 325.125 155.75ZM325.125 150.938C327.542 150.938 329.521 150.323 331.062 149.094C332.604 147.865 333.75 146.25 334.5 144.25C335.25 142.229 335.625 140.062 335.625 137.75C335.625 135.396 335.25 133.208 334.5 131.188C333.75 129.167 332.604 127.542 331.062 126.312C329.521 125.062 327.542 124.438 325.125 124.438C322.75 124.438 320.792 125.062 319.25 126.312C317.708 127.542 316.562 129.167 315.812 131.188C315.062 133.208 314.688 135.396 314.688 137.75C314.688 140.062 315.062 142.229 315.812 144.25C316.562 146.25 317.708 147.865 319.25 149.094C320.792 150.323 322.75 150.938 325.125 150.938ZM346.188 155V120.062H351.312V125.375H351.688C352.333 123.646 353.49 122.25 355.156 121.188C356.844 120.104 358.729 119.562 360.812 119.562C361.208 119.562 361.698 119.573 362.281 119.594C362.865 119.594 363.312 119.604 363.625 119.625V125.062C363.438 125.021 363.021 124.958 362.375 124.875C361.729 124.792 361.042 124.75 360.312 124.75C358.625 124.75 357.115 125.104 355.781 125.812C354.448 126.521 353.396 127.49 352.625 128.719C351.875 129.948 351.5 131.354 351.5 132.938V155H346.188ZM30.75 211V232H25.4375V185.438H30.75V202.562H31.25C32.0625 200.75 33.2812 199.312 34.9062 198.25C36.5521 197.167 38.75 196.625 41.5 196.625C43.875 196.625 45.9583 197.104 47.75 198.062C49.5417 199 50.9375 200.448 51.9375 202.406C52.9375 204.344 53.4375 206.812 53.4375 209.812V232H48.0625V210.188C48.0625 207.396 47.3438 205.24 45.9062 203.719C44.4688 202.198 42.4792 201.438 39.9375 201.438C38.1667 201.438 36.5938 201.812 35.2188 202.562C33.8438 203.312 32.75 204.396 31.9375 205.812C31.1458 207.229 30.75 208.958 30.75 211ZM70.5625 232.812C68.3542 232.812 66.3438 232.396 64.5312 231.562C62.7188 230.708 61.2812 229.479 60.2188 227.875C59.1562 226.271 58.625 224.333 58.625 222.062C58.625 220.062 59.0208 218.448 59.8125 217.219C60.6042 215.969 61.6562 214.99 62.9688 214.281C64.3021 213.552 65.7604 213.01 67.3438 212.656C68.9479 212.302 70.5625 212.021 72.1875 211.812C74.3125 211.542 76.0312 211.333 77.3438 211.188C78.6771 211.042 79.6458 210.792 80.25 210.438C80.875 210.083 81.1875 209.479 81.1875 208.625V208.438C81.1875 206.208 80.5729 204.479 79.3438 203.25C78.1354 202 76.2917 201.375 73.8125 201.375C71.2708 201.375 69.2708 201.938 67.8125 203.062C66.3542 204.167 65.3333 205.354 64.75 206.625L59.625 204.812C60.5417 202.688 61.7604 201.031 63.2812 199.844C64.8229 198.656 66.4896 197.823 68.2812 197.344C70.0938 196.865 71.875 196.625 73.625 196.625C74.75 196.625 76.0417 196.76 77.5 197.031C78.9583 197.281 80.375 197.823 81.75 198.656C83.1458 199.469 84.2917 200.708 85.1875 202.375C86.1042 204.021 86.5625 206.229 86.5625 209V232H81.1875V227.25H80.9375C80.5833 228 79.9792 228.812 79.125 229.688C78.2708 230.542 77.1354 231.281 75.7188 231.906C74.3229 232.51 72.6042 232.812 70.5625 232.812ZM71.375 228C73.5 228 75.2917 227.583 76.75 226.75C78.2083 225.917 79.3125 224.844 80.0625 223.531C80.8125 222.198 81.1875 220.812 81.1875 219.375V214.438C80.9583 214.708 80.4583 214.958 79.6875 215.188C78.9375 215.396 78.0625 215.583 77.0625 215.75C76.0833 215.917 75.125 216.062 74.1875 216.188C73.25 216.292 72.5 216.375 71.9375 216.438C70.5417 216.625 69.2396 216.927 68.0312 217.344C66.8229 217.74 65.8438 218.333 65.0938 219.125C64.3646 219.917 64 221 64 222.375C64 224.229 64.6875 225.635 66.0625 226.594C67.4583 227.531 69.2292 228 71.375 228ZM98.75 185.438V232H93.4375V185.438H98.75ZM121.125 197.062V201.625H102.312V197.062H121.125ZM107.938 232V192.25C107.938 190.25 108.406 188.583 109.344 187.25C110.302 185.917 111.531 184.917 113.031 184.25C114.531 183.583 116.104 183.25 117.75 183.25C119.083 183.25 120.167 183.365 121 183.594C121.854 183.802 122.479 184 122.875 184.188L121.312 188.812C121.042 188.708 120.667 188.594 120.188 188.469C119.729 188.323 119.104 188.25 118.312 188.25C116.542 188.25 115.25 188.708 114.438 189.625C113.646 190.521 113.25 191.833 113.25 193.562V232H107.938ZM155.812 197.062V201.625H137.75V197.062H155.812ZM143 188.75H148.312V222C148.312 223.812 148.688 225.146 149.438 226C150.188 226.833 151.375 227.25 153 227.25C153.354 227.25 153.719 227.229 154.094 227.188C154.49 227.146 154.917 227.083 155.375 227L156.5 231.812C156 232 155.385 232.146 154.656 232.25C153.948 232.375 153.229 232.438 152.5 232.438C149.688 232.438 147.396 231.604 145.625 229.938C143.875 228.271 143 226.104 143 223.438V188.75ZM167 211V232H161.688V185.438H167V202.562H167.5C168.312 200.75 169.531 199.312 171.156 198.25C172.802 197.167 175 196.625 177.75 196.625C180.125 196.625 182.208 197.104 184 198.062C185.792 199 187.188 200.448 188.188 202.406C189.188 204.344 189.688 206.812 189.688 209.812V232H184.312V210.188C184.312 207.396 183.594 205.24 182.156 203.719C180.719 202.198 178.729 201.438 176.188 201.438C174.417 201.438 172.844 201.812 171.469 202.562C170.094 203.312 169 204.396 168.188 205.812C167.396 207.229 167 208.958 167 211ZM211.188 232.75C207.833 232.75 204.927 232 202.469 230.5C200.031 229 198.156 226.906 196.844 224.219C195.531 221.51 194.875 218.375 194.875 214.812C194.875 211.229 195.521 208.073 196.812 205.344C198.104 202.615 199.917 200.479 202.25 198.938C204.604 197.396 207.354 196.625 210.5 196.625C212.312 196.625 214.115 196.927 215.906 197.531C217.698 198.135 219.323 199.115 220.781 200.469C222.26 201.823 223.438 203.615 224.312 205.844C225.188 208.073 225.625 210.812 225.625 214.062V216.375H198.688V211.75H222.719L220.25 213.5C220.25 211.167 219.885 209.094 219.156 207.281C218.427 205.469 217.333 204.042 215.875 203C214.438 201.958 212.646 201.438 210.5 201.438C208.354 201.438 206.51 201.969 204.969 203.031C203.448 204.073 202.281 205.438 201.469 207.125C200.656 208.812 200.25 210.625 200.25 212.562V215.625C200.25 218.271 200.708 220.51 201.625 222.344C202.542 224.177 203.823 225.573 205.469 226.531C207.115 227.469 209.021 227.938 211.188 227.938C212.583 227.938 213.854 227.74 215 227.344C216.146 226.927 217.135 226.312 217.969 225.5C218.802 224.667 219.438 223.646 219.875 222.438L225.062 223.938C224.521 225.688 223.604 227.229 222.312 228.562C221.042 229.875 219.458 230.906 217.562 231.656C215.667 232.385 213.542 232.75 211.188 232.75ZM245.688 245.062V197.062H250.812V202.625H251.438C251.833 202.021 252.385 201.25 253.094 200.312C253.802 199.354 254.823 198.5 256.156 197.75C257.49 197 259.292 196.625 261.562 196.625C264.5 196.625 267.083 197.365 269.312 198.844C271.542 200.302 273.281 202.385 274.531 205.094C275.802 207.781 276.438 210.958 276.438 214.625C276.438 218.312 275.812 221.521 274.562 224.25C273.312 226.958 271.573 229.052 269.344 230.531C267.115 232.01 264.542 232.75 261.625 232.75C259.396 232.75 257.604 232.375 256.25 231.625C254.896 230.854 253.854 229.99 253.125 229.031C252.396 228.052 251.833 227.25 251.438 226.625H251V245.062H245.688ZM260.938 227.938C263.167 227.938 265.031 227.344 266.531 226.156C268.031 224.948 269.156 223.333 269.906 221.312C270.677 219.292 271.062 217.042 271.062 214.562C271.062 212.104 270.688 209.885 269.938 207.906C269.188 205.927 268.062 204.354 266.562 203.188C265.083 202.021 263.208 201.438 260.938 201.438C258.75 201.438 256.917 201.99 255.438 203.094C253.958 204.177 252.833 205.708 252.062 207.688C251.312 209.646 250.938 211.938 250.938 214.562C250.938 217.188 251.323 219.51 252.094 221.531C252.865 223.531 253.99 225.104 255.469 226.25C256.969 227.375 258.792 227.938 260.938 227.938ZM281.625 232V197.062H286.75V202.375H287.125C287.771 200.646 288.927 199.25 290.594 198.188C292.281 197.104 294.167 196.562 296.25 196.562C296.646 196.562 297.135 196.573 297.719 196.594C298.302 196.594 298.75 196.604 299.062 196.625V202.062C298.875 202.021 298.458 201.958 297.812 201.875C297.167 201.792 296.479 201.75 295.75 201.75C294.062 201.75 292.552 202.104 291.219 202.812C289.885 203.521 288.833 204.49 288.062 205.719C287.312 206.948 286.938 208.354 286.938 209.938V232H281.625ZM302.438 232V197.062H307.75V232H302.438ZM305.125 191.25C304.083 191.25 303.188 190.896 302.438 190.188C301.688 189.479 301.312 188.625 301.312 187.625C301.312 186.625 301.688 185.771 302.438 185.062C303.188 184.354 304.083 184 305.125 184C306.167 184 307.062 184.354 307.812 185.062C308.562 185.771 308.938 186.625 308.938 187.625C308.938 188.625 308.562 189.479 307.812 190.188C307.062 190.896 306.167 191.25 305.125 191.25ZM328.75 232.75C325.5 232.75 322.688 231.979 320.312 230.438C317.958 228.875 316.135 226.74 314.844 224.031C313.573 221.323 312.938 218.229 312.938 214.75C312.938 211.188 313.594 208.052 314.906 205.344C316.219 202.615 318.052 200.479 320.406 198.938C322.781 197.396 325.542 196.625 328.688 196.625C331.146 196.625 333.354 197.083 335.312 198C337.292 198.896 338.906 200.167 340.156 201.812C341.427 203.458 342.208 205.375 342.5 207.562H337.125C336.854 206.5 336.365 205.5 335.656 204.562C334.948 203.625 334.01 202.875 332.844 202.312C331.698 201.729 330.333 201.438 328.75 201.438C326.667 201.438 324.844 201.979 323.281 203.062C321.719 204.146 320.5 205.677 319.625 207.656C318.75 209.615 318.312 211.917 318.312 214.562C318.312 217.25 318.74 219.604 319.594 221.625C320.448 223.625 321.656 225.177 323.219 226.281C324.802 227.385 326.646 227.938 328.75 227.938C330.854 227.938 332.656 227.396 334.156 226.312C335.656 225.208 336.646 223.708 337.125 221.812H342.5C342.208 223.875 341.458 225.729 340.25 227.375C339.062 229.021 337.49 230.333 335.531 231.312C333.594 232.271 331.333 232.75 328.75 232.75ZM362.188 232.75C358.833 232.75 355.927 232 353.469 230.5C351.031 229 349.156 226.906 347.844 224.219C346.531 221.51 345.875 218.375 345.875 214.812C345.875 211.229 346.521 208.073 347.812 205.344C349.104 202.615 350.917 200.479 353.25 198.938C355.604 197.396 358.354 196.625 361.5 196.625C363.312 196.625 365.115 196.927 366.906 197.531C368.698 198.135 370.323 199.115 371.781 200.469C373.26 201.823 374.438 203.615 375.312 205.844C376.188 208.073 376.625 210.812 376.625 214.062V216.375H349.688V211.75H373.719L371.25 213.5C371.25 211.167 370.885 209.094 370.156 207.281C369.427 205.469 368.333 204.042 366.875 203C365.438 201.958 363.646 201.438 361.5 201.438C359.354 201.438 357.51 201.969 355.969 203.031C354.448 204.073 353.281 205.438 352.469 207.125C351.656 208.812 351.25 210.625 351.25 212.562V215.625C351.25 218.271 351.708 220.51 352.625 222.344C353.542 224.177 354.823 225.573 356.469 226.531C358.115 227.469 360.021 227.938 362.188 227.938C363.583 227.938 364.854 227.74 366 227.344C367.146 226.927 368.135 226.312 368.969 225.5C369.802 224.667 370.438 223.646 370.875 222.438L376.062 223.938C375.521 225.688 374.604 227.229 373.312 228.562C372.042 229.875 370.458 230.906 368.562 231.656C366.667 232.385 364.542 232.75 362.188 232.75ZM385.844 232.375C384.719 232.375 383.75 231.979 382.938 231.188C382.146 230.375 381.75 229.406 381.75 228.281C381.75 227.156 382.146 226.198 382.938 225.406C383.75 224.594 384.719 224.188 385.844 224.188C386.969 224.188 387.927 224.594 388.719 225.406C389.531 226.198 389.938 227.156 389.938 228.281C389.938 229.406 389.531 230.375 388.719 231.188C387.927 231.979 386.969 232.375 385.844 232.375Z" fill="black"/>
</g>
<defs>
<linearGradient id="paint0_linear_2003_2" x1="256" y1="0" x2="256" y2="307" gradientUnits="userSpaceOnUse">
<stop stop-color="white"/>
<stop offset="1" stop-color="#999999"/>
</linearGradient>
<linearGradient id="paint1_linear_2003_2" x1="219" y1="61.5" x2="-66" y2="61.5" gradientUnits="userSpaceOnUse">
<stop stop-color="#DADADA"/>
<stop offset="1" stop-color="#747474"/>
</linearGradient>
<linearGradient id="paint2_linear_2003_2" x1="766" y1="267.5" x2="413" y2="267.5" gradientUnits="userSpaceOnUse">
<stop stop-color="#DADADA"/>
<stop offset="1" stop-color="#747474"/>
</linearGradient>
<clipPath id="clip0_2003_2">
<rect width="512" height="307" fill="white"/>
</clipPath>
</defs>
</svg>
