<svg width="512" height="307" viewBox="0 0 512 307" fill="none" xmlns="http://www.w3.org/2000/svg">
<rect width="512" height="307" fill="url(#paint0_linear_1_2)"/>
<path d="M26.125 78V31.4375H41.875C45.5208 31.4375 48.5 32.0938 50.8125 33.4062C53.1458 34.7188 54.875 36.4896 56 38.7188C57.125 40.9479 57.6875 43.4375 57.6875 46.1875C57.6875 48.9167 57.125 51.4062 56 53.6562C54.8958 55.9062 53.1771 57.6979 50.8438 59.0312C48.5312 60.3438 45.5625 61 41.9375 61H30.6875V56H41.75C44.25 56 46.2604 55.5729 47.7812 54.7188C49.3021 53.8646 50.4062 52.6979 51.0938 51.2188C51.7812 49.7188 52.125 48.0417 52.125 46.1875C52.125 44.3125 51.7812 42.6458 51.0938 41.1875C50.4062 39.7083 49.2917 38.5521 47.75 37.7188C46.2292 36.8646 44.2083 36.4375 41.6875 36.4375H31.75V78H26.125ZM73.3125 78.8125C71.1042 78.8125 69.0938 78.3958 67.2812 77.5625C65.4688 76.7083 64.0312 75.4792 62.9688 73.875C61.9062 72.2708 61.375 70.3333 61.375 68.0625C61.375 66.0625 61.7708 64.4479 62.5625 63.2188C63.3542 61.9688 64.4062 60.9896 65.7188 60.2812C67.0521 59.5521 68.5104 59.0104 70.0938 58.6562C71.6979 58.3021 73.3125 58.0208 74.9375 57.8125C77.0625 57.5417 78.7812 57.3333 80.0938 57.1875C81.4271 57.0417 82.3958 56.7917 83 56.4375C83.625 56.0833 83.9375 55.4792 83.9375 54.625V54.4375C83.9375 52.2083 83.3229 50.4792 82.0938 49.25C80.8854 48 79.0417 47.375 76.5625 47.375C74.0208 47.375 72.0208 47.9375 70.5625 49.0625C69.1042 50.1667 68.0833 51.3542 67.5 52.625L62.375 50.8125C63.2917 48.6875 64.5104 47.0312 66.0312 45.8438C67.5729 44.6562 69.2396 43.8229 71.0312 43.3438C72.8438 42.8646 74.625 42.625 76.375 42.625C77.5 42.625 78.7917 42.7604 80.25 43.0312C81.7083 43.2812 83.125 43.8229 84.5 44.6562C85.8958 45.4688 87.0417 46.7083 87.9375 48.375C88.8542 50.0208 89.3125 52.2292 89.3125 55V78H83.9375V73.25H83.6875C83.3333 74 82.7292 74.8125 81.875 75.6875C81.0208 76.5417 79.8854 77.2812 78.4688 77.9062C77.0729 78.5104 75.3542 78.8125 73.3125 78.8125ZM74.125 74C76.25 74 78.0417 73.5833 79.5 72.75C80.9583 71.9167 82.0625 70.8438 82.8125 69.5312C83.5625 68.1979 83.9375 66.8125 83.9375 65.375V60.4375C83.7083 60.7083 83.2083 60.9583 82.4375 61.1875C81.6875 61.3958 80.8125 61.5833 79.8125 61.75C78.8333 61.9167 77.875 62.0625 76.9375 62.1875C76 62.2917 75.25 62.375 74.6875 62.4375C73.2917 62.625 71.9896 62.9271 70.7812 63.3438C69.5729 63.7396 68.5938 64.3333 67.8438 65.125C67.1146 65.9167 66.75 67 66.75 68.375C66.75 70.2292 67.4375 71.6354 68.8125 72.5938C70.2083 73.5312 71.9792 74 74.125 74ZM98.375 91.0625C97.4583 91.0833 96.6458 91.0208 95.9375 90.875C95.2292 90.7292 94.7292 90.5833 94.4375 90.4375L95.8125 85.75L96.3438 85.875C98.1354 86.2917 99.6354 86.1979 100.844 85.5938C102.073 85.0104 103.146 83.4583 104.062 80.9375L105.062 78.1875L92.1875 43.0625H98L107.625 70.9375H108L117.625 43.0625H123.438L108.625 83.0625C107.958 84.875 107.135 86.375 106.156 87.5625C105.177 88.75 104.042 89.625 102.75 90.1875C101.458 90.7708 100 91.0625 98.375 91.0625ZM132.875 31.4375V78H127.562V31.4375H132.875ZM153.875 78.75C150.729 78.75 147.969 78 145.594 76.5C143.219 75 141.365 72.8958 140.031 70.1875C138.719 67.4792 138.062 64.3333 138.062 60.75C138.062 57.1042 138.719 53.9271 140.031 51.2188C141.365 48.4896 143.219 46.375 145.594 44.875C147.969 43.375 150.729 42.625 153.875 42.625C157.042 42.625 159.812 43.375 162.188 44.875C164.562 46.375 166.417 48.4896 167.75 51.2188C169.083 53.9271 169.75 57.1042 169.75 60.75C169.75 64.3333 169.083 67.4792 167.75 70.1875C166.417 72.8958 164.562 75 162.188 76.5C159.812 78 157.042 78.75 153.875 78.75ZM153.875 73.9375C156.292 73.9375 158.271 73.3229 159.812 72.0938C161.354 70.8646 162.5 69.25 163.25 67.25C164 65.2292 164.375 63.0625 164.375 60.75C164.375 58.3958 164 56.2083 163.25 54.1875C162.5 52.1667 161.354 50.5417 159.812 49.3125C158.271 48.0625 156.292 47.4375 153.875 47.4375C151.5 47.4375 149.542 48.0625 148 49.3125C146.458 50.5417 145.312 52.1667 144.562 54.1875C143.812 56.2083 143.438 58.3958 143.438 60.75C143.438 63.0625 143.812 65.2292 144.562 67.25C145.312 69.25 146.458 70.8646 148 72.0938C149.542 73.3229 151.5 73.9375 153.875 73.9375ZM185.188 78.8125C182.979 78.8125 180.969 78.3958 179.156 77.5625C177.344 76.7083 175.906 75.4792 174.844 73.875C173.781 72.2708 173.25 70.3333 173.25 68.0625C173.25 66.0625 173.646 64.4479 174.438 63.2188C175.229 61.9688 176.281 60.9896 177.594 60.2812C178.927 59.5521 180.385 59.0104 181.969 58.6562C183.573 58.3021 185.188 58.0208 186.812 57.8125C188.938 57.5417 190.656 57.3333 191.969 57.1875C193.302 57.0417 194.271 56.7917 194.875 56.4375C195.5 56.0833 195.812 55.4792 195.812 54.625V54.4375C195.812 52.2083 195.198 50.4792 193.969 49.25C192.76 48 190.917 47.375 188.438 47.375C185.896 47.375 183.896 47.9375 182.438 49.0625C180.979 50.1667 179.958 51.3542 179.375 52.625L174.25 50.8125C175.167 48.6875 176.385 47.0312 177.906 45.8438C179.448 44.6562 181.115 43.8229 182.906 43.3438C184.719 42.8646 186.5 42.625 188.25 42.625C189.375 42.625 190.667 42.7604 192.125 43.0312C193.583 43.2812 195 43.8229 196.375 44.6562C197.771 45.4688 198.917 46.7083 199.812 48.375C200.729 50.0208 201.188 52.2292 201.188 55V78H195.812V73.25H195.562C195.208 74 194.604 74.8125 193.75 75.6875C192.896 76.5417 191.76 77.2812 190.344 77.9062C188.948 78.5104 187.229 78.8125 185.188 78.8125ZM186 74C188.125 74 189.917 73.5833 191.375 72.75C192.833 71.9167 193.938 70.8438 194.688 69.5312C195.438 68.1979 195.812 66.8125 195.812 65.375V60.4375C195.583 60.7083 195.083 60.9583 194.312 61.1875C193.562 61.3958 192.688 61.5833 191.688 61.75C190.708 61.9167 189.75 62.0625 188.812 62.1875C187.875 62.2917 187.125 62.375 186.562 62.4375C185.167 62.625 183.865 62.9271 182.656 63.3438C181.448 63.7396 180.469 64.3333 179.719 65.125C178.99 65.9167 178.625 67 178.625 68.375C178.625 70.2292 179.312 71.6354 180.688 72.5938C182.083 73.5312 183.854 74 186 74ZM221.188 78.75C218.271 78.75 215.698 78.0104 213.469 76.5312C211.24 75.0521 209.5 72.9583 208.25 70.25C207 67.5208 206.375 64.3125 206.375 60.625C206.375 56.9583 207 53.7812 208.25 51.0938C209.521 48.3854 211.271 46.3021 213.5 44.8438C215.729 43.3646 218.312 42.625 221.25 42.625C223.542 42.625 225.344 43 226.656 43.75C227.99 44.5 229.01 45.3542 229.719 46.3125C230.427 47.25 230.979 48.0208 231.375 48.625H231.812V31.4375H237.125V78H232V72.625H231.375C230.979 73.25 230.417 74.0521 229.688 75.0312C228.958 75.9896 227.917 76.8542 226.562 77.625C225.229 78.375 223.438 78.75 221.188 78.75ZM221.875 73.9375C224.042 73.9375 225.865 73.375 227.344 72.25C228.823 71.1042 229.948 69.5312 230.719 67.5312C231.49 65.5104 231.875 63.1875 231.875 60.5625C231.875 57.9375 231.5 55.6458 230.75 53.6875C230 51.7083 228.875 50.1771 227.375 49.0938C225.896 47.9896 224.062 47.4375 221.875 47.4375C219.625 47.4375 217.75 48.0208 216.25 49.1875C214.75 50.3542 213.625 51.9271 212.875 53.9062C212.125 55.8854 211.75 58.1042 211.75 60.5625C211.75 63.0417 212.125 65.2917 212.875 67.3125C213.646 69.3333 214.781 70.9479 216.281 72.1562C217.781 73.3438 219.646 73.9375 221.875 73.9375ZM278.438 78.625C274.479 78.625 270.948 77.6562 267.844 75.7188C264.74 73.7812 262.302 71.0312 260.531 67.4688C258.76 63.8854 257.875 59.6458 257.875 54.75C257.875 49.8333 258.76 45.5833 260.531 42C262.302 38.4167 264.74 35.6562 267.844 33.7188C270.948 31.7812 274.479 30.8125 278.438 30.8125C280.771 30.8125 282.969 31.1562 285.031 31.8438C287.115 32.5312 288.99 33.5312 290.656 34.8438C292.323 36.1354 293.708 37.7292 294.812 39.625C295.938 41.5 296.708 43.625 297.125 46H291.5C291.167 44.375 290.583 42.9479 289.75 41.7188C288.938 40.4896 287.938 39.4583 286.75 38.625C285.583 37.7708 284.292 37.1354 282.875 36.7188C281.458 36.2812 279.979 36.0625 278.438 36.0625C275.625 36.0625 273.073 36.7812 270.781 38.2188C268.49 39.6354 266.667 41.7396 265.312 44.5312C263.979 47.3021 263.312 50.7083 263.312 54.75C263.312 58.7708 263.979 62.1667 265.312 64.9375C266.667 67.7083 268.49 69.8125 270.781 71.25C273.073 72.6667 275.625 73.375 278.438 73.375C279.979 73.375 281.458 73.1667 282.875 72.75C284.292 72.3125 285.583 71.6771 286.75 70.8438C287.938 69.9896 288.938 68.9479 289.75 67.7188C290.583 66.4896 291.167 65.0625 291.5 63.4375H297.125C296.708 65.8333 295.938 67.9688 294.812 69.8438C293.708 71.7188 292.323 73.3125 290.656 74.625C288.99 75.9167 287.115 76.9062 285.031 77.5938C282.969 78.2812 280.771 78.625 278.438 78.625ZM303.25 31.4375H310L325.812 70.0625H326.375L342.188 31.4375H349.156V78H343.625V42.625H343.188L328.531 78H323.469L309 42.625H308.562V78H303.25V31.4375ZM372.188 78.8125C368.854 78.8125 365.969 78.2812 363.531 77.2188C361.094 76.1354 359.177 74.6354 357.781 72.7188C356.406 70.7812 355.625 68.5417 355.438 66H361.25C361.417 67.75 362.01 69.1979 363.031 70.3438C364.073 71.4896 365.396 72.3438 367 72.9062C368.604 73.4688 370.333 73.75 372.188 73.75C374.333 73.75 376.26 73.3958 377.969 72.6875C379.698 71.9792 381.062 70.9896 382.062 69.7188C383.062 68.4479 383.562 66.9583 383.562 65.25C383.562 63.7083 383.125 62.4583 382.25 61.5C381.375 60.5417 380.229 59.7604 378.812 59.1562C377.417 58.5521 375.896 58.0208 374.25 57.5625L368.562 55.9375C364.917 54.8958 362.031 53.4062 359.906 51.4688C357.802 49.5104 356.75 46.9583 356.75 43.8125C356.75 41.2083 357.448 38.9375 358.844 37C360.26 35.0417 362.167 33.5208 364.562 32.4375C366.979 31.3542 369.667 30.8125 372.625 30.8125C375.625 30.8125 378.292 31.3542 380.625 32.4375C382.958 33.5 384.812 34.9583 386.188 36.8125C387.562 38.6458 388.292 40.7292 388.375 43.0625H382.875C382.604 40.7708 381.5 38.9896 379.562 37.7188C377.646 36.4479 375.271 35.8125 372.438 35.8125C370.396 35.8125 368.604 36.1458 367.062 36.8125C365.521 37.4792 364.323 38.3958 363.469 39.5625C362.615 40.7292 362.188 42.0625 362.188 43.5625C362.188 45.2083 362.698 46.5417 363.719 47.5625C364.74 48.5625 365.948 49.3438 367.344 49.9062C368.76 50.4688 370.042 50.9167 371.188 51.25L375.875 52.5625C377.083 52.8958 378.427 53.3438 379.906 53.9062C381.406 54.4688 382.844 55.2292 384.219 56.1875C385.615 57.1458 386.76 58.375 387.656 59.875C388.552 61.3542 389 63.1875 389 65.375C389 67.875 388.344 70.1458 387.031 72.1875C385.719 74.2083 383.812 75.8229 381.312 77.0312C378.812 78.2188 375.771 78.8125 372.188 78.8125Z" fill="black"/>
<path d="M52.8125 178.438V120.812H60.5625V178.438H52.8125ZM27.875 153.562V145.688H85.4375V153.562H27.875Z" fill="url(#paint1_linear_1_2)"/>
<path d="M63.125 222.438V269H57.5625L32.25 232.438H31.75V269H26.125V222.438H31.5625L57.0625 259.062H57.5V222.438H63.125ZM85.3125 269.75C81.9583 269.75 79.0521 269 76.5938 267.5C74.1562 266 72.2812 263.906 70.9688 261.219C69.6562 258.51 69 255.375 69 251.812C69 248.229 69.6458 245.073 70.9375 242.344C72.2292 239.615 74.0417 237.479 76.375 235.938C78.7292 234.396 81.4792 233.625 84.625 233.625C86.4375 233.625 88.2396 233.927 90.0312 234.531C91.8229 235.135 93.4479 236.115 94.9062 237.469C96.3854 238.823 97.5625 240.615 98.4375 242.844C99.3125 245.073 99.75 247.812 99.75 251.062V253.375H72.8125V248.75H96.8438L94.375 250.5C94.375 248.167 94.0104 246.094 93.2812 244.281C92.5521 242.469 91.4583 241.042 90 240C88.5625 238.958 86.7708 238.438 84.625 238.438C82.4792 238.438 80.6354 238.969 79.0938 240.031C77.5729 241.073 76.4062 242.438 75.5938 244.125C74.7812 245.812 74.375 247.625 74.375 249.562V252.625C74.375 255.271 74.8333 257.51 75.75 259.344C76.6667 261.177 77.9479 262.573 79.5938 263.531C81.2396 264.469 83.1458 264.938 85.3125 264.938C86.7083 264.938 87.9792 264.74 89.125 264.344C90.2708 263.927 91.2604 263.312 92.0938 262.5C92.9271 261.667 93.5625 260.646 94 259.438L99.1875 260.938C98.6458 262.688 97.7292 264.229 96.4375 265.562C95.1667 266.875 93.5833 267.906 91.6875 268.656C89.7917 269.385 87.6667 269.75 85.3125 269.75ZM107.375 234.062L115.688 248.375L124.062 234.062H130.25L119 251.562L130.25 269H124.062L115.688 255.438L107.375 269H101.188L112.25 251.562L101.188 234.062H107.375ZM150.062 234.062V238.625H132V234.062H150.062ZM137.25 225.75H142.562V259C142.562 260.812 142.938 262.146 143.688 263C144.438 263.833 145.625 264.25 147.25 264.25C147.604 264.25 147.969 264.229 148.344 264.188C148.74 264.146 149.167 264.083 149.625 264L150.75 268.812C150.25 269 149.635 269.146 148.906 269.25C148.198 269.375 147.479 269.438 146.75 269.438C143.938 269.438 141.646 268.604 139.875 266.938C138.125 265.271 137.25 263.104 137.25 260.438V225.75ZM181.062 269.625C178.521 269.625 176.25 269.167 174.25 268.25C172.271 267.312 170.708 265.979 169.562 264.25C168.438 262.521 167.875 260.458 167.875 258.062V257H173.438V258.062C173.438 259.375 173.76 260.531 174.406 261.531C175.073 262.51 175.979 263.271 177.125 263.812C178.271 264.354 179.583 264.625 181.062 264.625C182.688 264.625 184.062 264.292 185.188 263.625C186.333 262.938 187.198 261.938 187.781 260.625C188.385 259.292 188.688 257.667 188.688 255.75V222.438H194.312V255.75C194.312 258.708 193.771 261.229 192.688 263.312C191.604 265.375 190.073 266.948 188.094 268.031C186.115 269.094 183.771 269.625 181.062 269.625ZM217.312 269.812C213.979 269.812 211.094 269.281 208.656 268.219C206.219 267.135 204.302 265.635 202.906 263.719C201.531 261.781 200.75 259.542 200.562 257H206.375C206.542 258.75 207.135 260.198 208.156 261.344C209.198 262.49 210.521 263.344 212.125 263.906C213.729 264.469 215.458 264.75 217.312 264.75C219.458 264.75 221.385 264.396 223.094 263.688C224.823 262.979 226.188 261.99 227.188 260.719C228.188 259.448 228.688 257.958 228.688 256.25C228.688 254.708 228.25 253.458 227.375 252.5C226.5 251.542 225.354 250.76 223.938 250.156C222.542 249.552 221.021 249.021 219.375 248.562L213.688 246.938C210.042 245.896 207.156 244.406 205.031 242.469C202.927 240.51 201.875 237.958 201.875 234.812C201.875 232.208 202.573 229.938 203.969 228C205.385 226.042 207.292 224.521 209.688 223.438C212.104 222.354 214.792 221.812 217.75 221.812C220.75 221.812 223.417 222.354 225.75 223.438C228.083 224.5 229.938 225.958 231.312 227.812C232.688 229.646 233.417 231.729 233.5 234.062H228C227.729 231.771 226.625 229.99 224.688 228.719C222.771 227.448 220.396 226.812 217.562 226.812C215.521 226.812 213.729 227.146 212.188 227.812C210.646 228.479 209.448 229.396 208.594 230.562C207.74 231.729 207.312 233.062 207.312 234.562C207.312 236.208 207.823 237.542 208.844 238.562C209.865 239.562 211.073 240.344 212.469 240.906C213.885 241.469 215.167 241.917 216.312 242.25L221 243.562C222.208 243.896 223.552 244.344 225.031 244.906C226.531 245.469 227.969 246.229 229.344 247.188C230.74 248.146 231.885 249.375 232.781 250.875C233.677 252.354 234.125 254.188 234.125 256.375C234.125 258.875 233.469 261.146 232.156 263.188C230.844 265.208 228.938 266.823 226.438 268.031C223.938 269.219 220.896 269.812 217.312 269.812Z" fill="black"/>
<path d="M284.5 223L310.914 268.75H258.086L284.5 223Z" fill="url(#paint2_linear_1_2)"/>
<path d="M438.131 24L466.12 40.8385V72.7949L445.042 85V53.0436L417.038 36.2203L438.131 24ZM414.88 70.5176L436.001 58.2871V83.2259L414.88 70.5176Z" fill="url(#paint3_linear_1_2)"/>
<defs>
<linearGradient id="paint0_linear_1_2" x1="256" y1="0" x2="256" y2="307" gradientUnits="userSpaceOnUse">
<stop stop-color="white"/>
<stop offset="1" stop-color="#999999"/>
</linearGradient>
<linearGradient id="paint1_linear_1_2" x1="57" y1="124.755" x2="57" y2="161.852" gradientUnits="userSpaceOnUse">
<stop/>
<stop offset="1" stop-color="#666666"/>
</linearGradient>
<linearGradient id="paint2_linear_1_2" x1="284.5" y1="223" x2="284.5" y2="284" gradientUnits="userSpaceOnUse">
<stop stop-color="#818181"/>
<stop offset="1" stop-color="#010101"/>
</linearGradient>
<linearGradient id="paint3_linear_1_2" x1="440.5" y1="24" x2="440.5" y2="85" gradientUnits="userSpaceOnUse">
<stop/>
<stop offset="1" stop-color="#666666"/>
</linearGradient>
</defs>
</svg>
