<svg width="512" height="307" viewBox="0 0 512 307" fill="none" xmlns="http://www.w3.org/2000/svg">
<rect width="512" height="307" fill="url(#paint0_linear_2001_7)"/>
<path d="M24.5625 36.4375V31.4375H59.5V36.4375H44.875V78H39.25V36.4375H24.5625ZM69.8125 57V78H64.5V31.4375H69.8125V48.5625H70.3125C71.125 46.75 72.3438 45.3125 73.9688 44.25C75.6146 43.1667 77.8125 42.625 80.5625 42.625C82.9375 42.625 85.0208 43.1042 86.8125 44.0625C88.6042 45 90 46.4479 91 48.4062C92 50.3438 92.5 52.8125 92.5 55.8125V78H87.125V56.1875C87.125 53.3958 86.4062 51.2396 84.9688 49.7188C83.5312 48.1979 81.5417 47.4375 79 47.4375C77.2292 47.4375 75.6562 47.8125 74.2812 48.5625C72.9062 49.3125 71.8125 50.3958 71 51.8125C70.2083 53.2292 69.8125 54.9583 69.8125 57ZM114 78.75C110.646 78.75 107.74 78 105.281 76.5C102.844 75 100.969 72.9062 99.6562 70.2188C98.3438 67.5104 97.6875 64.375 97.6875 60.8125C97.6875 57.2292 98.3333 54.0729 99.625 51.3438C100.917 48.6146 102.729 46.4792 105.062 44.9375C107.417 43.3958 110.167 42.625 113.312 42.625C115.125 42.625 116.927 42.9271 118.719 43.5312C120.51 44.1354 122.135 45.1146 123.594 46.4688C125.073 47.8229 126.25 49.6146 127.125 51.8438C128 54.0729 128.438 56.8125 128.438 60.0625V62.375H101.5V57.75H125.531L123.062 59.5C123.062 57.1667 122.698 55.0938 121.969 53.2812C121.24 51.4688 120.146 50.0417 118.688 49C117.25 47.9583 115.458 47.4375 113.312 47.4375C111.167 47.4375 109.323 47.9688 107.781 49.0312C106.26 50.0729 105.094 51.4375 104.281 53.125C103.469 54.8125 103.062 56.625 103.062 58.5625V61.625C103.062 64.2708 103.521 66.5104 104.438 68.3438C105.354 70.1771 106.635 71.5729 108.281 72.5312C109.927 73.4688 111.833 73.9375 114 73.9375C115.396 73.9375 116.667 73.7396 117.812 73.3438C118.958 72.9271 119.948 72.3125 120.781 71.5C121.615 70.6667 122.25 69.6458 122.688 68.4375L127.875 69.9375C127.333 71.6875 126.417 73.2292 125.125 74.5625C123.854 75.875 122.271 76.9062 120.375 77.6562C118.479 78.3854 116.354 78.75 114 78.75ZM149.188 78V31.4375H164.938C168.583 31.4375 171.562 32.0938 173.875 33.4062C176.208 34.7188 177.938 36.4896 179.062 38.7188C180.188 40.9479 180.75 43.4375 180.75 46.1875C180.75 48.9167 180.188 51.4062 179.062 53.6562C177.958 55.9062 176.24 57.6979 173.906 59.0312C171.594 60.3438 168.625 61 165 61H153.75V56H164.812C167.312 56 169.323 55.5729 170.844 54.7188C172.365 53.8646 173.469 52.6979 174.156 51.2188C174.844 49.7188 175.188 48.0417 175.188 46.1875C175.188 44.3125 174.844 42.6458 174.156 41.1875C173.469 39.7083 172.354 38.5521 170.812 37.7188C169.292 36.8646 167.271 36.4375 164.75 36.4375H154.812V78H149.188ZM199.875 78.75C196.729 78.75 193.969 78 191.594 76.5C189.219 75 187.365 72.8958 186.031 70.1875C184.719 67.4792 184.062 64.3333 184.062 60.75C184.062 57.1042 184.719 53.9271 186.031 51.2188C187.365 48.4896 189.219 46.375 191.594 44.875C193.969 43.375 196.729 42.625 199.875 42.625C203.042 42.625 205.812 43.375 208.188 44.875C210.562 46.375 212.417 48.4896 213.75 51.2188C215.083 53.9271 215.75 57.1042 215.75 60.75C215.75 64.3333 215.083 67.4792 213.75 70.1875C212.417 72.8958 210.562 75 208.188 76.5C205.812 78 203.042 78.75 199.875 78.75ZM199.875 73.9375C202.292 73.9375 204.271 73.3229 205.812 72.0938C207.354 70.8646 208.5 69.25 209.25 67.25C210 65.2292 210.375 63.0625 210.375 60.75C210.375 58.3958 210 56.2083 209.25 54.1875C208.5 52.1667 207.354 50.5417 205.812 49.3125C204.271 48.0625 202.292 47.4375 199.875 47.4375C197.5 47.4375 195.542 48.0625 194 49.3125C192.458 50.5417 191.312 52.1667 190.562 54.1875C189.812 56.2083 189.438 58.3958 189.438 60.75C189.438 63.0625 189.812 65.2292 190.562 67.25C191.312 69.25 192.458 70.8646 194 72.0938C195.542 73.3229 197.5 73.9375 199.875 73.9375ZM227.625 78L217 43.0625H222.625L230.188 69.8125H230.562L238 43.0625H243.75L251.062 69.75H251.438L259 43.0625H264.625L254 78H248.75L241.062 51.1875H240.562L232.875 78H227.625ZM282.188 78.75C278.833 78.75 275.927 78 273.469 76.5C271.031 75 269.156 72.9062 267.844 70.2188C266.531 67.5104 265.875 64.375 265.875 60.8125C265.875 57.2292 266.521 54.0729 267.812 51.3438C269.104 48.6146 270.917 46.4792 273.25 44.9375C275.604 43.3958 278.354 42.625 281.5 42.625C283.312 42.625 285.115 42.9271 286.906 43.5312C288.698 44.1354 290.323 45.1146 291.781 46.4688C293.26 47.8229 294.438 49.6146 295.312 51.8438C296.188 54.0729 296.625 56.8125 296.625 60.0625V62.375H269.688V57.75H293.719L291.25 59.5C291.25 57.1667 290.885 55.0938 290.156 53.2812C289.427 51.4688 288.333 50.0417 286.875 49C285.438 47.9583 283.646 47.4375 281.5 47.4375C279.354 47.4375 277.51 47.9688 275.969 49.0312C274.448 50.0729 273.281 51.4375 272.469 53.125C271.656 54.8125 271.25 56.625 271.25 58.5625V61.625C271.25 64.2708 271.708 66.5104 272.625 68.3438C273.542 70.1771 274.823 71.5729 276.469 72.5312C278.115 73.4688 280.021 73.9375 282.188 73.9375C283.583 73.9375 284.854 73.7396 286 73.3438C287.146 72.9271 288.135 72.3125 288.969 71.5C289.802 70.6667 290.438 69.6458 290.875 68.4375L296.062 69.9375C295.521 71.6875 294.604 73.2292 293.312 74.5625C292.042 75.875 290.458 76.9062 288.562 77.6562C286.667 78.3854 284.542 78.75 282.188 78.75ZM301.688 78V43.0625H306.812V48.375H307.188C307.833 46.6458 308.99 45.25 310.656 44.1875C312.344 43.1042 314.229 42.5625 316.312 42.5625C316.708 42.5625 317.198 42.5729 317.781 42.5938C318.365 42.5938 318.812 42.6042 319.125 42.625V48.0625C318.938 48.0208 318.521 47.9583 317.875 47.875C317.229 47.7917 316.542 47.75 315.812 47.75C314.125 47.75 312.615 48.1042 311.281 48.8125C309.948 49.5208 308.896 50.4896 308.125 51.7188C307.375 52.9479 307 54.3542 307 55.9375V78H301.688ZM351.625 78.75C348.479 78.75 345.719 78 343.344 76.5C340.969 75 339.115 72.8958 337.781 70.1875C336.469 67.4792 335.812 64.3333 335.812 60.75C335.812 57.1042 336.469 53.9271 337.781 51.2188C339.115 48.4896 340.969 46.375 343.344 44.875C345.719 43.375 348.479 42.625 351.625 42.625C354.792 42.625 357.562 43.375 359.938 44.875C362.312 46.375 364.167 48.4896 365.5 51.2188C366.833 53.9271 367.5 57.1042 367.5 60.75C367.5 64.3333 366.833 67.4792 365.5 70.1875C364.167 72.8958 362.312 75 359.938 76.5C357.562 78 354.792 78.75 351.625 78.75ZM351.625 73.9375C354.042 73.9375 356.021 73.3229 357.562 72.0938C359.104 70.8646 360.25 69.25 361 67.25C361.75 65.2292 362.125 63.0625 362.125 60.75C362.125 58.3958 361.75 56.2083 361 54.1875C360.25 52.1667 359.104 50.5417 357.562 49.3125C356.021 48.0625 354.042 47.4375 351.625 47.4375C349.25 47.4375 347.292 48.0625 345.75 49.3125C344.208 50.5417 343.062 52.1667 342.312 54.1875C341.562 56.2083 341.188 58.3958 341.188 60.75C341.188 63.0625 341.562 65.2292 342.312 67.25C343.062 69.25 344.208 70.8646 345.75 72.0938C347.292 73.3229 349.25 73.9375 351.625 73.9375ZM388.188 43.0625V47.625H369.375V43.0625H388.188ZM375 78V38.25C375 36.25 375.469 34.5833 376.406 33.25C377.365 31.9167 378.594 30.9167 380.094 30.25C381.594 29.5833 383.167 29.25 384.812 29.25C386.146 29.25 387.229 29.3646 388.062 29.5938C388.917 29.8021 389.542 30 389.938 30.1875L388.375 34.8125C388.104 34.7083 387.729 34.5938 387.25 34.4688C386.792 34.3229 386.167 34.25 385.375 34.25C383.604 34.25 382.312 34.7083 381.5 35.625C380.708 36.5208 380.312 37.8333 380.312 39.5625V78H375ZM35.7812 155L23.0938 108.438H28.7812L38.5312 146.375H38.9688L48.9062 108.438H55.2812L65.1562 146.375H65.6562L75.3438 108.438H81.0938L68.3438 155H62.5312L52.2812 117.938H51.9062L41.6562 155H35.7812ZM96 155.75C92.6458 155.75 89.7396 155 87.2812 153.5C84.8438 152 82.9688 149.906 81.6562 147.219C80.3438 144.51 79.6875 141.375 79.6875 137.812C79.6875 134.229 80.3333 131.073 81.625 128.344C82.9167 125.615 84.7292 123.479 87.0625 121.938C89.4167 120.396 92.1667 119.625 95.3125 119.625C97.125 119.625 98.9271 119.927 100.719 120.531C102.51 121.135 104.135 122.115 105.594 123.469C107.073 124.823 108.25 126.615 109.125 128.844C110 131.073 110.438 133.812 110.438 137.062V139.375H83.5V134.75H107.531L105.062 136.5C105.062 134.167 104.698 132.094 103.969 130.281C103.24 128.469 102.146 127.042 100.688 126C99.25 124.958 97.4583 124.438 95.3125 124.438C93.1667 124.438 91.3229 124.969 89.7812 126.031C88.2604 127.073 87.0938 128.438 86.2812 130.125C85.4688 131.812 85.0625 133.625 85.0625 135.562V138.625C85.0625 141.271 85.5208 143.51 86.4375 145.344C87.3542 147.177 88.6354 148.573 90.2812 149.531C91.9271 150.469 93.8333 150.938 96 150.938C97.3958 150.938 98.6667 150.74 99.8125 150.344C100.958 149.927 101.948 149.312 102.781 148.5C103.615 147.667 104.25 146.646 104.688 145.438L109.875 146.938C109.333 148.688 108.417 150.229 107.125 151.562C105.854 152.875 104.271 153.906 102.375 154.656C100.479 155.385 98.3542 155.75 96 155.75ZM131.438 155.75C129.208 155.75 127.417 155.375 126.062 154.625C124.708 153.854 123.667 152.99 122.938 152.031C122.208 151.052 121.646 150.25 121.25 149.625H120.625V155H115.5V108.438H120.812V125.625H121.25C121.646 125.021 122.198 124.25 122.906 123.312C123.615 122.354 124.635 121.5 125.969 120.75C127.302 120 129.104 119.625 131.375 119.625C134.312 119.625 136.896 120.365 139.125 121.844C141.354 123.302 143.094 125.385 144.344 128.094C145.615 130.781 146.25 133.958 146.25 137.625C146.25 141.312 145.625 144.521 144.375 147.25C143.125 149.958 141.385 152.052 139.156 153.531C136.927 155.01 134.354 155.75 131.438 155.75ZM130.75 150.938C132.979 150.938 134.844 150.344 136.344 149.156C137.844 147.948 138.969 146.333 139.719 144.312C140.49 142.292 140.875 140.042 140.875 137.562C140.875 135.104 140.5 132.885 139.75 130.906C139 128.927 137.875 127.354 136.375 126.188C134.896 125.021 133.021 124.438 130.75 124.438C128.562 124.438 126.729 124.99 125.25 126.094C123.771 127.177 122.646 128.708 121.875 130.688C121.125 132.646 120.75 134.938 120.75 137.562C120.75 140.188 121.135 142.51 121.906 144.531C122.677 146.531 123.802 148.104 125.281 149.25C126.781 150.375 128.604 150.938 130.75 150.938ZM169.062 155H163.125L180.25 108.438H186.062L203.125 155H197.25L183.312 115.812H182.938L169.062 155ZM171.25 136.812H195.062V141.812H171.25V136.812ZM231.375 127.938L226.562 129.25C226.104 128.062 225.312 126.938 224.188 125.875C223.083 124.792 221.354 124.25 219 124.25C216.875 124.25 215.104 124.75 213.688 125.75C212.271 126.729 211.562 127.958 211.562 129.438C211.562 130.771 212.042 131.833 213 132.625C213.979 133.417 215.5 134.062 217.562 134.562L222.75 135.812C225.854 136.562 228.167 137.719 229.688 139.281C231.229 140.844 232 142.833 232 145.25C232 147.25 231.427 149.042 230.281 150.625C229.135 152.208 227.542 153.458 225.5 154.375C223.458 155.292 221.083 155.75 218.375 155.75C214.812 155.75 211.865 154.969 209.531 153.406C207.219 151.844 205.75 149.583 205.125 146.625L210.188 145.375C210.667 147.25 211.583 148.656 212.938 149.594C214.312 150.531 216.104 151 218.312 151C220.792 151 222.771 150.469 224.25 149.406C225.75 148.323 226.5 147.042 226.5 145.562C226.5 143.104 224.771 141.458 221.312 140.625L215.5 139.25C212.292 138.479 209.938 137.302 208.438 135.719C206.938 134.135 206.188 132.146 206.188 129.75C206.188 127.771 206.74 126.021 207.844 124.5C208.969 122.979 210.5 121.792 212.438 120.938C214.375 120.062 216.562 119.625 219 119.625C222.479 119.625 225.198 120.396 227.156 121.938C229.135 123.458 230.542 125.458 231.375 127.938ZM261.812 127.938L257 129.25C256.542 128.062 255.75 126.938 254.625 125.875C253.521 124.792 251.792 124.25 249.438 124.25C247.312 124.25 245.542 124.75 244.125 125.75C242.708 126.729 242 127.958 242 129.438C242 130.771 242.479 131.833 243.438 132.625C244.417 133.417 245.938 134.062 248 134.562L253.188 135.812C256.292 136.562 258.604 137.719 260.125 139.281C261.667 140.844 262.438 142.833 262.438 145.25C262.438 147.25 261.865 149.042 260.719 150.625C259.573 152.208 257.979 153.458 255.938 154.375C253.896 155.292 251.521 155.75 248.812 155.75C245.25 155.75 242.302 154.969 239.969 153.406C237.656 151.844 236.188 149.583 235.562 146.625L240.625 145.375C241.104 147.25 242.021 148.656 243.375 149.594C244.75 150.531 246.542 151 248.75 151C251.229 151 253.208 150.469 254.688 149.406C256.188 148.323 256.938 147.042 256.938 145.562C256.938 143.104 255.208 141.458 251.75 140.625L245.938 139.25C242.729 138.479 240.375 137.302 238.875 135.719C237.375 134.135 236.625 132.146 236.625 129.75C236.625 127.771 237.177 126.021 238.281 124.5C239.406 122.979 240.938 121.792 242.875 120.938C244.812 120.062 247 119.625 249.438 119.625C252.917 119.625 255.635 120.396 257.594 121.938C259.573 123.458 260.979 125.458 261.812 127.938ZM282.188 155.75C278.833 155.75 275.927 155 273.469 153.5C271.031 152 269.156 149.906 267.844 147.219C266.531 144.51 265.875 141.375 265.875 137.812C265.875 134.229 266.521 131.073 267.812 128.344C269.104 125.615 270.917 123.479 273.25 121.938C275.604 120.396 278.354 119.625 281.5 119.625C283.312 119.625 285.115 119.927 286.906 120.531C288.698 121.135 290.323 122.115 291.781 123.469C293.26 124.823 294.438 126.615 295.312 128.844C296.188 131.073 296.625 133.812 296.625 137.062V139.375H269.688V134.75H293.719L291.25 136.5C291.25 134.167 290.885 132.094 290.156 130.281C289.427 128.469 288.333 127.042 286.875 126C285.438 124.958 283.646 124.438 281.5 124.438C279.354 124.438 277.51 124.969 275.969 126.031C274.448 127.073 273.281 128.438 272.469 130.125C271.656 131.812 271.25 133.625 271.25 135.562V138.625C271.25 141.271 271.708 143.51 272.625 145.344C273.542 147.177 274.823 148.573 276.469 149.531C278.115 150.469 280.021 150.938 282.188 150.938C283.583 150.938 284.854 150.74 286 150.344C287.146 149.927 288.135 149.312 288.969 148.5C289.802 147.667 290.438 146.646 290.875 145.438L296.062 146.938C295.521 148.688 294.604 150.229 293.312 151.562C292.042 152.875 290.458 153.906 288.562 154.656C286.667 155.385 284.542 155.75 282.188 155.75ZM301.688 155V120.062H306.812V125.562H307.312C308.042 123.688 309.219 122.229 310.844 121.188C312.469 120.146 314.417 119.625 316.688 119.625C318.979 119.625 320.885 120.146 322.406 121.188C323.948 122.229 325.146 123.688 326 125.562H326.375C327.292 123.75 328.635 122.312 330.406 121.25C332.198 120.167 334.333 119.625 336.812 119.625C339.938 119.625 342.5 120.604 344.5 122.562C346.5 124.5 347.5 127.521 347.5 131.625V155H342.125V131.625C342.125 129.042 341.417 127.198 340 126.094C338.583 124.99 336.917 124.438 335 124.438C332.562 124.438 330.667 125.188 329.312 126.688C327.979 128.167 327.312 130.021 327.312 132.25V155H321.812V131.062C321.812 129.083 321.177 127.49 319.906 126.281C318.635 125.052 316.979 124.438 314.938 124.438C313.542 124.438 312.24 124.812 311.031 125.562C309.823 126.312 308.844 127.344 308.094 128.656C307.365 129.969 307 131.479 307 133.188V155H301.688ZM370.312 155.75C368.083 155.75 366.292 155.375 364.938 154.625C363.583 153.854 362.542 152.99 361.812 152.031C361.083 151.052 360.521 150.25 360.125 149.625H359.5V155H354.375V108.438H359.688V125.625H360.125C360.521 125.021 361.073 124.25 361.781 123.312C362.49 122.354 363.51 121.5 364.844 120.75C366.177 120 367.979 119.625 370.25 119.625C373.188 119.625 375.771 120.365 378 121.844C380.229 123.302 381.969 125.385 383.219 128.094C384.49 130.781 385.125 133.958 385.125 137.625C385.125 141.312 384.5 144.521 383.25 147.25C382 149.958 380.26 152.052 378.031 153.531C375.802 155.01 373.229 155.75 370.312 155.75ZM369.625 150.938C371.854 150.938 373.719 150.344 375.219 149.156C376.719 147.948 377.844 146.333 378.594 144.312C379.365 142.292 379.75 140.042 379.75 137.562C379.75 135.104 379.375 132.885 378.625 130.906C377.875 128.927 376.75 127.354 375.25 126.188C373.771 125.021 371.896 124.438 369.625 124.438C367.438 124.438 365.604 124.99 364.125 126.094C362.646 127.177 361.521 128.708 360.75 130.688C360 132.646 359.625 134.938 359.625 137.562C359.625 140.188 360.01 142.51 360.781 144.531C361.552 146.531 362.677 148.104 364.156 149.25C365.656 150.375 367.479 150.938 369.625 150.938ZM395.625 108.438V155H390.312V108.438H395.625ZM405.938 168.062C405.021 168.083 404.208 168.021 403.5 167.875C402.792 167.729 402.292 167.583 402 167.438L403.375 162.75L403.906 162.875C405.698 163.292 407.198 163.198 408.406 162.594C409.635 162.01 410.708 160.458 411.625 157.938L412.625 155.188L399.75 120.062H405.562L415.188 147.938H415.562L425.188 120.062H431L416.188 160.062C415.521 161.875 414.698 163.375 413.719 164.562C412.74 165.75 411.604 166.625 410.312 167.188C409.021 167.771 407.562 168.062 405.938 168.062Z" fill="black"/>
<g clip-path="url(#clip0_2001_7)">
<path d="M462.921 210C462.921 210.136 462.921 210.276 462.921 210.419C462.921 215.359 458.917 219.363 453.977 219.363C449.037 219.363 445.033 215.359 445.033 210.419C445.033 210.273 445.033 210.136 445.033 210H415V288H493V210H462.921ZM452.226 279.651L448.426 260.856H448.361L444.253 279.651H439.017L433.089 252.036H438.257L441.793 270.83H441.858L446.119 252.036H450.952L454.777 271.061H454.842L458.878 252.036H463.952L457.364 279.651H452.226ZM480.679 279.651L478.918 273.505H469.619L468.264 279.651H463.097L469.779 252.036H477.933L486.058 279.651H480.679ZM472.889 258.841L470.634 268.974H477.65L475.063 258.841H472.889Z" fill="url(#paint1_linear_2001_7)"/>
</g>
<path d="M29.928 208.816C28.8187 207.941 27.9387 206.901 27.288 205.696C26.648 204.48 26.328 203.099 26.328 201.552C26.328 200.005 26.648 198.624 27.288 197.408C27.9387 196.192 28.8187 195.152 29.928 194.288L30.648 194.96C29.5813 195.856 28.792 196.843 28.28 197.92C27.768 198.997 27.512 200.208 27.512 201.552C27.512 202.896 27.768 204.107 28.28 205.184C28.792 206.251 29.5813 207.237 30.648 208.144L29.928 208.816ZM36.9298 206.192C35.9164 206.192 35.1004 205.84 34.4818 205.136C33.8631 204.421 33.5538 203.419 33.5538 202.128C33.5538 201.285 33.7191 200.56 34.0498 199.952C34.3911 199.333 34.8284 198.859 35.3618 198.528C35.9058 198.197 36.4818 198.032 37.0898 198.032C37.5484 198.032 37.9644 198.123 38.3378 198.304C38.7218 198.475 39.0791 198.72 39.4098 199.04H39.4578L39.3938 197.6V194.608H40.7058V206H39.6178L39.5058 204.976H39.4578C39.1484 205.307 38.7698 205.595 38.3218 205.84C37.8844 206.075 37.4204 206.192 36.9298 206.192ZM37.2018 205.088C37.5858 205.088 37.9591 204.992 38.3218 204.8C38.6844 204.597 39.0418 204.304 39.3938 203.92V200.048C39.0418 199.717 38.6951 199.483 38.3538 199.344C38.0231 199.205 37.6871 199.136 37.3458 199.136C36.8978 199.136 36.4871 199.264 36.1138 199.52C35.7511 199.765 35.4578 200.112 35.2338 200.56C35.0204 200.997 34.9138 201.515 34.9138 202.112C34.9138 203.04 35.1164 203.771 35.5218 204.304C35.9271 204.827 36.4871 205.088 37.2018 205.088ZM46.1235 206.192C45.6435 206.192 45.2008 206.107 44.7955 205.936C44.3902 205.755 44.0702 205.499 43.8355 205.168C43.6008 204.837 43.4835 204.443 43.4835 203.984C43.4835 203.109 43.9208 202.448 44.7955 202C45.6702 201.541 47.1102 201.232 49.1155 201.072C49.1048 200.72 49.0302 200.395 48.8915 200.096C48.7635 199.797 48.5502 199.563 48.2515 199.392C47.9528 199.211 47.5528 199.12 47.0515 199.12C46.7208 199.12 46.3902 199.168 46.0595 199.264C45.7395 199.349 45.4302 199.467 45.1315 199.616C44.8435 199.755 44.5768 199.899 44.3315 200.048L43.8195 199.152C44.0755 198.981 44.3848 198.811 44.7475 198.64C45.1208 198.459 45.5208 198.315 45.9475 198.208C46.3742 198.091 46.8168 198.032 47.2755 198.032C47.9902 198.032 48.5768 198.165 49.0355 198.432C49.5048 198.699 49.8515 199.072 50.0755 199.552C50.3102 200.021 50.4275 200.581 50.4275 201.232V206H49.3555L49.2435 204.944H49.1955C48.7688 205.285 48.2888 205.579 47.7555 205.824C47.2222 206.069 46.6782 206.192 46.1235 206.192ZM46.4755 205.136C46.9235 205.136 47.3662 205.035 47.8035 204.832C48.2408 204.629 48.6782 204.347 49.1155 203.984V201.936C48.0062 202.032 47.1315 202.165 46.4915 202.336C45.8622 202.507 45.4142 202.725 45.1475 202.992C44.8915 203.248 44.7635 203.547 44.7635 203.888C44.7635 204.176 44.8435 204.416 45.0035 204.608C45.1635 204.789 45.3715 204.923 45.6275 205.008C45.8942 205.093 46.1768 205.136 46.4755 205.136ZM58.0853 206.192C57.3279 206.192 56.7306 206.059 56.2933 205.792C55.8559 205.515 55.5413 205.136 55.3493 204.656C55.1679 204.176 55.0773 203.616 55.0773 202.976V199.296H52.8853V198.304L55.1253 198.224L55.3013 195.728H56.3893V198.224H60.2133V199.296H56.3893V202.992C56.3893 203.451 56.4479 203.84 56.5653 204.16C56.6826 204.48 56.8853 204.72 57.1733 204.88C57.4613 205.04 57.8559 205.12 58.3573 205.12C58.7306 205.12 59.0666 205.088 59.3653 205.024C59.6639 204.96 59.9519 204.875 60.2292 204.768L60.5173 205.728C60.1653 205.856 59.7919 205.963 59.3973 206.048C59.0133 206.144 58.5759 206.192 58.0853 206.192ZM65.311 206.192C64.831 206.192 64.3883 206.107 63.983 205.936C63.5777 205.755 63.2577 205.499 63.023 205.168C62.7883 204.837 62.671 204.443 62.671 203.984C62.671 203.109 63.1083 202.448 63.983 202C64.8577 201.541 66.2977 201.232 68.303 201.072C68.2923 200.72 68.2177 200.395 68.079 200.096C67.951 199.797 67.7377 199.563 67.439 199.392C67.1403 199.211 66.7403 199.12 66.239 199.12C65.9083 199.12 65.5777 199.168 65.247 199.264C64.927 199.349 64.6177 199.467 64.319 199.616C64.031 199.755 63.7643 199.899 63.519 200.048L63.007 199.152C63.263 198.981 63.5723 198.811 63.935 198.64C64.3083 198.459 64.7083 198.315 65.135 198.208C65.5617 198.091 66.0043 198.032 66.463 198.032C67.1777 198.032 67.7643 198.165 68.223 198.432C68.6923 198.699 69.039 199.072 69.263 199.552C69.4977 200.021 69.615 200.581 69.615 201.232V206H68.543L68.431 204.944H68.383C67.9563 205.285 67.4763 205.579 66.943 205.824C66.4097 206.069 65.8657 206.192 65.311 206.192ZM65.663 205.136C66.111 205.136 66.5537 205.035 66.991 204.832C67.4283 204.629 67.8657 204.347 68.303 203.984V201.936C67.1937 202.032 66.319 202.165 65.679 202.336C65.0497 202.507 64.6017 202.725 64.335 202.992C64.079 203.248 63.951 203.547 63.951 203.888C63.951 204.176 64.031 204.416 64.191 204.608C64.351 204.789 64.559 204.923 64.815 205.008C65.0817 205.093 65.3643 205.136 65.663 205.136ZM87.4905 208.816C86.3812 207.941 85.5012 206.901 84.8505 205.696C84.2105 204.48 83.8905 203.099 83.8905 201.552C83.8905 200.005 84.2105 198.624 84.8505 197.408C85.5012 196.192 86.3812 195.152 87.4905 194.288L88.2105 194.96C87.1438 195.856 86.3545 196.843 85.8425 197.92C85.3305 198.997 85.0745 200.208 85.0745 201.552C85.0745 202.896 85.3305 204.107 85.8425 205.184C86.3545 206.251 87.1438 207.237 88.2105 208.144L87.4905 208.816ZM95.2123 206V199.296H91.5963V198.224H96.5243V206H95.2123ZM95.7243 196.592C95.4256 196.592 95.1749 196.501 94.9723 196.32C94.7696 196.128 94.6683 195.877 94.6683 195.568C94.6683 195.259 94.7696 195.013 94.9723 194.832C95.1749 194.64 95.4256 194.544 95.7243 194.544C96.0229 194.544 96.2736 194.64 96.4763 194.832C96.6789 195.013 96.7803 195.259 96.7803 195.568C96.7803 195.877 96.6789 196.128 96.4763 196.32C96.2736 196.501 96.0229 196.592 95.7243 196.592ZM104.342 206.192C103.755 206.192 103.233 206.123 102.774 205.984C102.315 205.845 101.91 205.669 101.558 205.456C101.217 205.243 100.918 205.008 100.662 204.752L101.334 203.888C101.675 204.208 102.086 204.491 102.566 204.736C103.046 204.981 103.611 205.104 104.262 205.104C104.731 205.104 105.147 205.029 105.51 204.88C105.883 204.72 106.177 204.501 106.39 204.224C106.603 203.936 106.71 203.605 106.71 203.232C106.71 202.827 106.587 202.475 106.342 202.176C106.097 201.867 105.702 201.627 105.158 201.456C104.614 201.285 103.894 201.2 102.998 201.2V200.192C103.809 200.192 104.459 200.107 104.95 199.936C105.441 199.765 105.793 199.541 106.006 199.264C106.23 198.976 106.342 198.651 106.342 198.288C106.342 197.787 106.15 197.392 105.766 197.104C105.393 196.816 104.891 196.672 104.262 196.672C103.782 196.672 103.323 196.768 102.886 196.96C102.459 197.152 102.081 197.403 101.75 197.712L101.046 196.88C101.473 196.507 101.958 196.203 102.502 195.968C103.057 195.723 103.659 195.6 104.31 195.6C104.95 195.6 105.521 195.701 106.022 195.904C106.534 196.107 106.939 196.4 107.238 196.784C107.537 197.168 107.686 197.637 107.686 198.192C107.686 198.811 107.478 199.317 107.062 199.712C106.657 200.107 106.139 200.411 105.51 200.624V200.688C105.958 200.784 106.374 200.949 106.758 201.184C107.153 201.408 107.462 201.696 107.686 202.048C107.921 202.4 108.038 202.811 108.038 203.28C108.038 203.888 107.867 204.411 107.526 204.848C107.195 205.275 106.753 205.605 106.198 205.84C105.643 206.075 105.025 206.192 104.342 206.192ZM110.512 206V205.216C111.664 204.203 112.634 203.312 113.424 202.544C114.224 201.765 114.832 201.067 115.248 200.448C115.664 199.829 115.872 199.237 115.872 198.672C115.872 198.085 115.69 197.605 115.328 197.232C114.965 196.859 114.405 196.672 113.648 196.672C113.168 196.672 112.72 196.789 112.304 197.024C111.898 197.259 111.53 197.552 111.2 197.904L110.448 197.152C110.906 196.683 111.397 196.309 111.92 196.032C112.453 195.744 113.082 195.6 113.808 195.6C114.49 195.6 115.077 195.728 115.568 195.984C116.069 196.229 116.453 196.576 116.72 197.024C116.997 197.472 117.136 198 117.136 198.608C117.136 199.248 116.938 199.893 116.544 200.544C116.149 201.195 115.594 201.883 114.88 202.608C114.176 203.323 113.36 204.107 112.432 204.96C112.752 204.928 113.072 204.907 113.392 204.896C113.712 204.875 114.026 204.864 114.336 204.864H117.696V206H110.512ZM123.738 206.192C123.386 206.192 123.082 206.069 122.826 205.824C122.57 205.568 122.442 205.243 122.442 204.848C122.442 204.443 122.57 204.117 122.826 203.872C123.082 203.616 123.386 203.488 123.738 203.488C124.1 203.488 124.404 203.616 124.65 203.872C124.906 204.117 125.034 204.443 125.034 204.848C125.034 205.243 124.906 205.568 124.65 205.824C124.404 206.069 124.1 206.192 123.738 206.192ZM134.067 206.192C133.257 206.192 132.526 206.032 131.875 205.712C131.235 205.392 130.729 204.928 130.355 204.32C129.993 203.712 129.811 202.981 129.811 202.128C129.811 201.253 130.009 200.512 130.403 199.904C130.798 199.296 131.321 198.832 131.971 198.512C132.633 198.192 133.358 198.032 134.147 198.032C134.787 198.032 135.337 198.144 135.795 198.368C136.265 198.592 136.659 198.859 136.979 199.168L136.323 200.016C136.003 199.739 135.673 199.52 135.331 199.36C134.99 199.2 134.611 199.12 134.195 199.12C133.598 199.12 133.07 199.248 132.611 199.504C132.153 199.749 131.795 200.101 131.539 200.56C131.294 201.008 131.171 201.531 131.171 202.128C131.171 202.715 131.294 203.232 131.539 203.68C131.785 204.128 132.131 204.48 132.579 204.736C133.038 204.981 133.566 205.104 134.163 205.104C134.643 205.104 135.081 205.008 135.475 204.816C135.881 204.624 136.243 204.395 136.563 204.128L137.155 204.976C136.729 205.36 136.249 205.659 135.715 205.872C135.193 206.085 134.643 206.192 134.067 206.192ZM142.925 206.192C142.242 206.192 141.608 206.032 141.021 205.712C140.445 205.392 139.976 204.928 139.613 204.32C139.261 203.712 139.085 202.981 139.085 202.128C139.085 201.253 139.261 200.512 139.613 199.904C139.976 199.296 140.445 198.832 141.021 198.512C141.608 198.192 142.242 198.032 142.925 198.032C143.608 198.032 144.237 198.192 144.813 198.512C145.4 198.832 145.869 199.296 146.221 199.904C146.584 200.512 146.765 201.253 146.765 202.128C146.765 202.981 146.584 203.712 146.221 204.32C145.869 204.928 145.4 205.392 144.813 205.712C144.237 206.032 143.608 206.192 142.925 206.192ZM142.925 205.104C143.426 205.104 143.864 204.981 144.237 204.736C144.61 204.48 144.898 204.128 145.101 203.68C145.304 203.232 145.405 202.715 145.405 202.128C145.405 201.531 145.304 201.008 145.101 200.56C144.898 200.101 144.61 199.749 144.237 199.504C143.864 199.248 143.426 199.12 142.925 199.12C142.424 199.12 141.986 199.248 141.613 199.504C141.25 199.749 140.962 200.101 140.749 200.56C140.546 201.008 140.445 201.531 140.445 202.128C140.445 202.715 140.546 203.232 140.749 203.68C140.962 204.128 141.25 204.48 141.613 204.736C141.986 204.981 142.424 205.104 142.925 205.104ZM149.207 206V198.224H150.295L150.407 199.552H150.471C150.876 199.115 151.313 198.752 151.783 198.464C152.252 198.176 152.791 198.032 153.399 198.032C154.316 198.032 154.993 198.299 155.431 198.832C155.868 199.365 156.087 200.144 156.087 201.168V206H154.775V201.344C154.775 200.608 154.636 200.064 154.359 199.712C154.081 199.349 153.623 199.168 152.983 199.168C152.524 199.168 152.113 199.285 151.751 199.52C151.388 199.755 150.977 200.107 150.519 200.576V206H149.207ZM162.273 206.192C161.515 206.192 160.806 206.069 160.145 205.824C159.483 205.579 158.918 205.296 158.449 204.976L159.057 204.112C159.505 204.432 160.001 204.688 160.545 204.88C161.089 205.072 161.718 205.168 162.433 205.168C163.094 205.168 163.585 205.045 163.905 204.8C164.235 204.555 164.401 204.272 164.401 203.952C164.401 203.803 164.369 203.664 164.305 203.536C164.251 203.408 164.139 203.285 163.969 203.168C163.809 203.051 163.569 202.939 163.249 202.832C162.929 202.725 162.502 202.619 161.969 202.512C160.955 202.299 160.193 202.011 159.681 201.648C159.179 201.285 158.929 200.816 158.929 200.24C158.929 199.611 159.201 199.088 159.745 198.672C160.289 198.245 161.094 198.032 162.161 198.032C162.758 198.032 163.334 198.133 163.889 198.336C164.443 198.528 164.913 198.757 165.297 199.024L164.657 199.872C164.305 199.616 163.905 199.419 163.457 199.28C163.009 199.131 162.539 199.056 162.049 199.056C161.601 199.056 161.243 199.109 160.977 199.216C160.721 199.312 160.534 199.445 160.417 199.616C160.31 199.787 160.257 199.973 160.257 200.176C160.257 200.507 160.433 200.768 160.785 200.96C161.147 201.141 161.723 201.312 162.513 201.472C163.377 201.653 164.038 201.856 164.497 202.08C164.966 202.304 165.286 202.56 165.457 202.848C165.638 203.136 165.729 203.477 165.729 203.872C165.729 204.299 165.595 204.688 165.329 205.04C165.062 205.381 164.673 205.659 164.161 205.872C163.649 206.085 163.019 206.192 162.273 206.192ZM173.21 206.192C172.453 206.192 171.856 206.059 171.418 205.792C170.981 205.515 170.666 205.136 170.474 204.656C170.293 204.176 170.202 203.616 170.202 202.976V199.296H168.01V198.304L170.25 198.224L170.426 195.728H171.514V198.224H175.338V199.296H171.514V202.992C171.514 203.451 171.573 203.84 171.69 204.16C171.808 204.48 172.01 204.72 172.298 204.88C172.586 205.04 172.981 205.12 173.482 205.12C173.856 205.12 174.192 205.088 174.49 205.024C174.789 204.96 175.077 204.875 175.354 204.768L175.642 205.728C175.29 205.856 174.917 205.963 174.522 206.048C174.138 206.144 173.701 206.192 173.21 206.192ZM190.926 206.192C190.158 206.192 189.491 206.075 188.926 205.84C188.371 205.595 187.939 205.259 187.63 204.832C187.331 204.405 187.182 203.925 187.182 203.392C187.182 202.923 187.288 202.517 187.502 202.176C187.715 201.824 187.987 201.531 188.318 201.296C188.659 201.051 189.011 200.843 189.374 200.672V200.608C188.947 200.331 188.579 200 188.27 199.616C187.971 199.221 187.822 198.757 187.822 198.224C187.822 197.701 187.955 197.243 188.222 196.848C188.499 196.453 188.872 196.149 189.342 195.936C189.822 195.712 190.366 195.6 190.974 195.6C191.966 195.6 192.739 195.856 193.294 196.368C193.859 196.869 194.142 197.52 194.142 198.32C194.142 198.8 193.987 199.253 193.678 199.68C193.379 200.096 193.016 200.453 192.59 200.752V200.816C192.963 201.008 193.299 201.216 193.598 201.44C193.907 201.664 194.147 201.936 194.318 202.256C194.499 202.576 194.59 202.981 194.59 203.472C194.59 203.973 194.446 204.432 194.158 204.848C193.88 205.253 193.47 205.579 192.926 205.824C192.382 206.069 191.715 206.192 190.926 206.192ZM191.726 200.432C192.579 199.813 193.006 199.131 193.006 198.384C193.006 198.053 192.926 197.755 192.766 197.488C192.606 197.211 192.371 196.992 192.062 196.832C191.763 196.661 191.39 196.576 190.942 196.576C190.387 196.576 189.928 196.731 189.566 197.04C189.203 197.339 189.022 197.733 189.022 198.224C189.022 198.629 189.139 198.965 189.374 199.232C189.619 199.499 189.944 199.728 190.35 199.92C190.766 200.101 191.224 200.272 191.726 200.432ZM190.958 205.216C191.715 205.216 192.296 205.051 192.702 204.72C193.118 204.389 193.326 203.957 193.326 203.424C193.326 203.072 193.24 202.779 193.07 202.544C192.91 202.299 192.686 202.096 192.398 201.936C192.11 201.765 191.768 201.611 191.374 201.472C190.99 201.333 190.574 201.189 190.126 201.04C189.795 201.221 189.496 201.419 189.23 201.632C188.963 201.845 188.755 202.085 188.606 202.352C188.456 202.619 188.382 202.923 188.382 203.264C188.382 203.637 188.483 203.973 188.686 204.272C188.899 204.56 189.198 204.789 189.582 204.96C189.976 205.131 190.435 205.216 190.958 205.216ZM198.36 208.816L197.64 208.144C198.706 207.237 199.496 206.251 200.008 205.184C200.52 204.107 200.776 202.896 200.776 201.552C200.776 200.208 200.52 198.997 200.008 197.92C199.496 196.843 198.706 195.856 197.64 194.96L198.36 194.288C199.48 195.152 200.36 196.192 201 197.408C201.64 198.624 201.96 200.005 201.96 201.552C201.96 203.099 201.64 204.48 201 205.696C200.36 206.901 199.48 207.941 198.36 208.816ZM217.387 200.368L216.987 196.768L216.955 195.008H218.715L218.683 196.768L218.283 200.368H217.387ZM221.067 200.368L220.667 196.768L220.635 195.008H222.395L222.363 196.768L221.963 200.368H221.067ZM225.957 206V194.608H227.269V197.712L227.189 199.552H227.237C227.631 199.125 228.063 198.768 228.533 198.48C229.002 198.181 229.541 198.032 230.149 198.032C231.066 198.032 231.743 198.299 232.181 198.832C232.618 199.365 232.837 200.144 232.837 201.168V206H231.525V201.344C231.525 200.608 231.386 200.064 231.109 199.712C230.831 199.349 230.373 199.168 229.733 199.168C229.274 199.168 228.863 199.285 228.501 199.52C228.138 199.755 227.727 200.107 227.269 200.576V206H225.957ZM239.343 206.192C238.564 206.192 237.855 206.032 237.215 205.712C236.585 205.392 236.084 204.928 235.711 204.32C235.337 203.701 235.151 202.96 235.151 202.096C235.151 201.253 235.337 200.528 235.711 199.92C236.084 199.312 236.569 198.848 237.167 198.528C237.775 198.197 238.425 198.032 239.119 198.032C239.865 198.032 240.5 198.187 241.023 198.496C241.556 198.795 241.961 199.216 242.239 199.76C242.527 200.304 242.671 200.944 242.671 201.68C242.671 201.829 242.665 201.973 242.655 202.112C242.644 202.251 242.628 202.373 242.607 202.48H236.031V201.456H241.823L241.487 201.824C241.487 200.907 241.273 200.219 240.847 199.76C240.431 199.301 239.865 199.072 239.151 199.072C238.671 199.072 238.223 199.189 237.807 199.424C237.401 199.659 237.076 200 236.831 200.448C236.585 200.896 236.463 201.445 236.463 202.096C236.463 202.768 236.596 203.328 236.863 203.776C237.129 204.224 237.492 204.565 237.951 204.8C238.409 205.024 238.927 205.136 239.503 205.136C239.972 205.136 240.393 205.072 240.767 204.944C241.151 204.805 241.519 204.624 241.871 204.4L242.351 205.264C241.967 205.52 241.524 205.739 241.023 205.92C240.532 206.101 239.972 206.192 239.343 206.192ZM250.152 206.192C249.331 206.192 248.702 205.957 248.264 205.488C247.827 205.008 247.608 204.309 247.608 203.392V195.68H244.952V194.608H248.92V203.488C248.92 204.053 249.059 204.464 249.336 204.72C249.614 204.976 249.982 205.104 250.44 205.104C250.664 205.104 250.894 205.077 251.128 205.024C251.363 204.96 251.624 204.864 251.912 204.736L252.248 205.728C251.896 205.856 251.566 205.963 251.256 206.048C250.947 206.144 250.579 206.192 250.152 206.192ZM259.746 206.192C258.925 206.192 258.295 205.957 257.858 205.488C257.421 205.008 257.202 204.309 257.202 203.392V195.68H254.546V194.608H258.514V203.488C258.514 204.053 258.653 204.464 258.93 204.72C259.207 204.976 259.575 205.104 260.034 205.104C260.258 205.104 260.487 205.077 260.722 205.024C260.957 204.96 261.218 204.864 261.506 204.736L261.842 205.728C261.49 205.856 261.159 205.963 260.85 206.048C260.541 206.144 260.173 206.192 259.746 206.192ZM267.644 206.192C266.961 206.192 266.326 206.032 265.74 205.712C265.164 205.392 264.694 204.928 264.332 204.32C263.98 203.712 263.804 202.981 263.804 202.128C263.804 201.253 263.98 200.512 264.332 199.904C264.694 199.296 265.164 198.832 265.74 198.512C266.326 198.192 266.961 198.032 267.644 198.032C268.326 198.032 268.956 198.192 269.532 198.512C270.118 198.832 270.588 199.296 270.94 199.904C271.302 200.512 271.484 201.253 271.484 202.128C271.484 202.981 271.302 203.712 270.94 204.32C270.588 204.928 270.118 205.392 269.532 205.712C268.956 206.032 268.326 206.192 267.644 206.192ZM267.644 205.104C268.145 205.104 268.582 204.981 268.956 204.736C269.329 204.48 269.617 204.128 269.82 203.68C270.022 203.232 270.124 202.715 270.124 202.128C270.124 201.531 270.022 201.008 269.82 200.56C269.617 200.101 269.329 199.749 268.956 199.504C268.582 199.248 268.145 199.12 267.644 199.12C267.142 199.12 266.705 199.248 266.332 199.504C265.969 199.749 265.681 200.101 265.468 200.56C265.265 201.008 265.164 201.531 265.164 202.128C265.164 202.715 265.265 203.232 265.468 203.68C265.681 204.128 265.969 204.48 266.332 204.736C266.705 204.981 267.142 205.104 267.644 205.104ZM283.855 206L282.159 198.224H283.471L284.399 202.736C284.474 203.099 284.538 203.456 284.591 203.808C284.655 204.149 284.709 204.507 284.751 204.88H284.815C284.869 204.507 284.933 204.149 285.007 203.808C285.093 203.456 285.178 203.099 285.263 202.736L286.223 198.704H287.535L288.463 202.736C288.549 203.099 288.639 203.456 288.735 203.808C288.831 204.149 288.901 204.507 288.943 204.88H289.007C289.071 204.507 289.125 204.149 289.167 203.808C289.221 203.456 289.285 203.099 289.359 202.736L290.287 198.224H291.503L289.839 206H288.143L287.247 202.288C287.183 202.011 287.119 201.68 287.055 201.296C286.991 200.912 286.927 200.475 286.863 199.984H286.799C286.735 200.475 286.671 200.912 286.607 201.296C286.543 201.68 286.479 202.011 286.415 202.288L285.551 206H283.855ZM296.425 206.192C295.742 206.192 295.108 206.032 294.521 205.712C293.945 205.392 293.476 204.928 293.113 204.32C292.761 203.712 292.585 202.981 292.585 202.128C292.585 201.253 292.761 200.512 293.113 199.904C293.476 199.296 293.945 198.832 294.521 198.512C295.108 198.192 295.742 198.032 296.425 198.032C297.108 198.032 297.737 198.192 298.313 198.512C298.9 198.832 299.369 199.296 299.721 199.904C300.084 200.512 300.265 201.253 300.265 202.128C300.265 202.981 300.084 203.712 299.721 204.32C299.369 204.928 298.9 205.392 298.313 205.712C297.737 206.032 297.108 206.192 296.425 206.192ZM296.425 205.104C296.926 205.104 297.364 204.981 297.737 204.736C298.11 204.48 298.398 204.128 298.601 203.68C298.804 203.232 298.905 202.715 298.905 202.128C298.905 201.531 298.804 201.008 298.601 200.56C298.398 200.101 298.11 199.749 297.737 199.504C297.364 199.248 296.926 199.12 296.425 199.12C295.924 199.12 295.486 199.248 295.113 199.504C294.75 199.749 294.462 200.101 294.249 200.56C294.046 201.008 293.945 201.531 293.945 202.128C293.945 202.715 294.046 203.232 294.249 203.68C294.462 204.128 294.75 204.48 295.113 204.736C295.486 204.981 295.924 205.104 296.425 205.104ZM303.555 206V198.224H304.643L304.755 200.064H304.803C305.208 199.435 305.709 198.939 306.307 198.576C306.904 198.213 307.56 198.032 308.275 198.032C308.563 198.032 308.829 198.059 309.075 198.112C309.331 198.155 309.576 198.235 309.811 198.352L309.507 199.488C309.24 199.392 309.011 199.323 308.819 199.28C308.627 199.237 308.376 199.216 308.067 199.216C307.48 199.216 306.915 199.387 306.371 199.728C305.837 200.059 305.336 200.629 304.867 201.44V206H303.555ZM317.309 206.192C316.487 206.192 315.858 205.957 315.421 205.488C314.983 205.008 314.765 204.309 314.765 203.392V195.68H312.109V194.608H316.077V203.488C316.077 204.053 316.215 204.464 316.493 204.72C316.77 204.976 317.138 205.104 317.597 205.104C317.821 205.104 318.05 205.077 318.285 205.024C318.519 204.96 318.781 204.864 319.069 204.736L319.405 205.728C319.053 205.856 318.722 205.963 318.413 206.048C318.103 206.144 317.735 206.192 317.309 206.192ZM324.742 206.192C323.729 206.192 322.913 205.84 322.294 205.136C321.676 204.421 321.366 203.419 321.366 202.128C321.366 201.285 321.532 200.56 321.862 199.952C322.204 199.333 322.641 198.859 323.174 198.528C323.718 198.197 324.294 198.032 324.902 198.032C325.361 198.032 325.777 198.123 326.15 198.304C326.534 198.475 326.892 198.72 327.222 199.04H327.27L327.206 197.6V194.608H328.518V206H327.43L327.318 204.976H327.27C326.961 205.307 326.582 205.595 326.134 205.84C325.697 206.075 325.233 206.192 324.742 206.192ZM325.014 205.088C325.398 205.088 325.772 204.992 326.134 204.8C326.497 204.597 326.854 204.304 327.206 203.92V200.048C326.854 199.717 326.508 199.483 326.166 199.344C325.836 199.205 325.5 199.136 325.158 199.136C324.71 199.136 324.3 199.264 323.926 199.52C323.564 199.765 323.27 200.112 323.046 200.56C322.833 200.997 322.726 201.515 322.726 202.112C322.726 203.04 322.929 203.771 323.334 204.304C323.74 204.827 324.3 205.088 325.014 205.088ZM336.832 208.56L331.584 194.64H332.768L338.016 208.56H336.832ZM341.082 206V198.224H342.17L342.282 199.552H342.346C342.751 199.115 343.188 198.752 343.658 198.464C344.127 198.176 344.666 198.032 345.274 198.032C346.191 198.032 346.868 198.299 347.306 198.832C347.743 199.365 347.962 200.144 347.962 201.168V206H346.65V201.344C346.65 200.608 346.511 200.064 346.234 199.712C345.956 199.349 345.498 199.168 344.858 199.168C344.399 199.168 343.988 199.285 343.626 199.52C343.263 199.755 342.852 200.107 342.394 200.576V206H341.082ZM351.7 200.368L351.299 196.768L351.268 195.008H353.028L352.996 196.768L352.596 200.368H351.7ZM355.38 200.368L354.98 196.768L354.948 195.008H356.708L356.676 196.768L356.276 200.368H355.38ZM361.453 208.816L360.733 208.144C361.8 207.237 362.589 206.251 363.101 205.184C363.613 204.107 363.869 202.896 363.869 201.552C363.869 200.208 363.613 198.997 363.101 197.92C362.589 196.843 361.8 195.856 360.733 194.96L361.453 194.288C362.573 195.152 363.453 196.192 364.093 197.408C364.733 198.624 365.053 200.005 365.053 201.552C365.053 203.099 364.733 204.48 364.093 205.696C363.453 206.901 362.573 207.941 361.453 208.816Z" fill="black"/>
<defs>
<linearGradient id="paint0_linear_2001_7" x1="256" y1="0" x2="256" y2="307" gradientUnits="userSpaceOnUse">
<stop stop-color="white"/>
<stop offset="1" stop-color="#999999"/>
</linearGradient>
<linearGradient id="paint1_linear_2001_7" x1="454" y1="210" x2="454" y2="288" gradientUnits="userSpaceOnUse">
<stop stop-color="#666666"/>
<stop offset="1"/>
</linearGradient>
<clipPath id="clip0_2001_7">
<rect width="78" height="78" fill="white" transform="translate(415 210)"/>
</clipPath>
</defs>
</svg>
